<svg aria-hidden="true" style="position: absolute; width: 0; height: 0; overflow: hidden;" version="1.1" xmlns="http://www.w3.org/2000/svg" xmlns:xlink="http://www.w3.org/1999/xlink">
<defs>
<symbol id="icon-antenna" viewBox="0 0 32 32">
<path fill="#212121" style="fill: var(--color1, #212121)" d="M30.773 22.098l-8.443-8.505 0.937-4.615c0.242 0.094 0.499 0.144 0.758 0.146h0.006c1.192 0.014 2.17-0.941 2.184-2.133s-0.941-2.17-2.133-2.184c-1.192-0.014-2.17 0.941-2.184 2.133-0.003 0.255 0.039 0.509 0.125 0.749l-4.96 0.605-8.091-8.133c-0.099-0.101-0.235-0.159-0.377-0.16-0.14 0.001-0.274 0.056-0.373 0.155l-1.513 1.504c-0.208 0.208-0.208 0.546 0 0.754l0.814 0.826c-3.153 5.798-2.129 12.978 2.519 17.663 0.043 0.041 0.092 0.074 0.146 0.098-0.034 0.18-0.051 0.364-0.052 0.547v6.187h-6.4c-1.472 0.002-2.665 1.195-2.667 2.667v1.067c0 0.295 0.239 0.533 0.533 0.533h24.533c0.295 0 0.533-0.239 0.533-0.533v-1.067c-0.002-1.472-1.195-2.665-2.667-2.667h-6.4v-2.742c1.003 0.21 2.024 0.317 3.049 0.32 2.458-0.003 4.877-0.615 7.040-1.783l0.818 0.823c0.099 0.101 0.235 0.159 0.377 0.16 0.14-0.001 0.274-0.056 0.373-0.155l1.512-1.504c0.208-0.208 0.208-0.546 0-0.754zM23.28 6.233c0.418-0.415 1.093-0.414 1.508 0.004s0.414 1.093-0.004 1.508c-0.2 0.199-0.47 0.31-0.752 0.31h-0.003c-0.589-0.003-1.064-0.483-1.061-1.072 0.001-0.282 0.114-0.552 0.314-0.751h-0.002zM22.024 9.738l-0.598 2.946-1.175-1.182 1.774-1.763zM21.418 8.836l-1.92 1.909-1.485-1.493 3.405-0.415zM24.004 28.8c0.884 0 1.6 0.716 1.6 1.6v0.533h-23.467v-0.533c0-0.884 0.716-1.6 1.6-1.6h20.267zM16.537 26.667v1.067h-5.333v-1.067h5.333zM11.204 25.6v-4.053c0-1.294 1.196-2.347 2.667-2.347s2.667 1.053 2.667 2.347v4.053h-5.333zM17.604 23.904v-2.357c0-1.882-1.675-3.413-3.733-3.413-1.331-0.020-2.576 0.657-3.281 1.786-4.058-4.274-4.971-10.645-2.279-15.887l18.602 18.708c-2.872 1.461-6.165 1.873-9.309 1.163zM28.893 23.22l-21.057-21.181 0.755-0.752 7.935 7.98c0.004 0 0.006 0.007 0.010 0.010l13.115 13.191-0.757 0.752z"></path>
<path fill="#2196f3" style="fill: var(--color2, #2196f3)" d="M13.876 20.267h-0.005c-0.884-0.001-1.601 0.714-1.602 1.598s0.714 1.601 1.598 1.602h0.005c0.884 0.001 1.601-0.714 1.602-1.598s-0.714-1.601-1.598-1.602zM14.249 22.245c-0.1 0.1-0.236 0.156-0.378 0.155-0.295-0.002-0.532-0.242-0.53-0.536 0.001-0.141 0.057-0.276 0.157-0.375s0.233-0.154 0.373-0.155c0.295 0.002 0.532 0.241 0.531 0.536-0.001 0.141-0.057 0.276-0.157 0.375h0.005z"></path>
</symbol>
<symbol id="icon-astronaut" viewBox="0 0 32 32">
<path fill="#2196f3" style="fill: var(--color2, #2196f3)" d="M31.974 4.524c-0.063-0.193-0.229-0.333-0.43-0.363l-1.91-0.278-0.855-1.731c-0.179-0.365-0.777-0.365-0.956 0l-0.855 1.731-1.91 0.278c-0.201 0.029-0.367 0.17-0.431 0.363-0.062 0.193-0.011 0.405 0.135 0.547l1.383 1.348-0.326 1.903c-0.034 0.2 0.048 0.402 0.212 0.522 0.166 0.121 0.382 0.135 0.562 0.040l1.709-0.899 1.709 0.899c0.078 0.041 0.164 0.061 0.249 0.061 0.11 0 0.221-0.034 0.314-0.102 0.164-0.119 0.246-0.322 0.212-0.522l-0.326-1.903 1.383-1.348c0.145-0.142 0.197-0.354 0.135-0.547zM29.511 5.851c-0.125 0.122-0.183 0.299-0.153 0.472l0.191 1.114-1-0.526c-0.078-0.041-0.163-0.061-0.249-0.061s-0.17 0.020-0.249 0.061l-1.001 0.526 0.191-1.114c0.030-0.173-0.028-0.349-0.153-0.472l-0.81-0.789 1.119-0.163c0.174-0.025 0.324-0.134 0.402-0.292l0.5-1.013 0.5 1.013c0.078 0.157 0.228 0.267 0.402 0.292l1.119 0.163-0.809 0.789z"></path>
<path fill="#2196f3" style="fill: var(--color2, #2196f3)" d="M26.134 20.522h-1.067v1.067h1.067v-1.067z"></path>
<path fill="#2196f3" style="fill: var(--color2, #2196f3)" d="M26.134 22.656h-1.067v1.067h1.067v-1.067z"></path>
<path fill="#2196f3" style="fill: var(--color2, #2196f3)" d="M27.2 21.589h-1.067v1.067h1.067v-1.067z"></path>
<path fill="#2196f3" style="fill: var(--color2, #2196f3)" d="M25.067 21.589h-1.067v1.067h1.067v-1.067z"></path>
<path fill="#2196f3" style="fill: var(--color2, #2196f3)" d="M22.4 26.389h-1.067v1.067h1.067v-1.067z"></path>
<path fill="#2196f3" style="fill: var(--color2, #2196f3)" d="M22.4 28.522h-1.067v1.067h1.067v-1.067z"></path>
<path fill="#2196f3" style="fill: var(--color2, #2196f3)" d="M23.467 27.456h-1.067v1.067h1.067v-1.067z"></path>
<path fill="#2196f3" style="fill: var(--color2, #2196f3)" d="M21.333 27.456h-1.067v1.067h1.067v-1.067z"></path>
<path fill="#2196f3" style="fill: var(--color2, #2196f3)" d="M16 24.256h-1.067v1.067h1.067v-1.067z"></path>
<path fill="#2196f3" style="fill: var(--color2, #2196f3)" d="M16 26.389h-1.067v1.067h1.067v-1.067z"></path>
<path fill="#2196f3" style="fill: var(--color2, #2196f3)" d="M17.067 25.322h-1.067v1.067h1.067v-1.067z"></path>
<path fill="#2196f3" style="fill: var(--color2, #2196f3)" d="M14.933 25.322h-1.067v1.067h1.067v-1.067z"></path>
<path fill="#2196f3" style="fill: var(--color2, #2196f3)" d="M5.867 6.122h-1.067v1.067h1.067v-1.067z"></path>
<path fill="#2196f3" style="fill: var(--color2, #2196f3)" d="M5.867 8.255h-1.067v1.067h1.067v-1.067z"></path>
<path fill="#2196f3" style="fill: var(--color2, #2196f3)" d="M6.933 7.189h-1.067v1.067h1.067v-1.067z"></path>
<path fill="#2196f3" style="fill: var(--color2, #2196f3)" d="M4.8 7.189h-1.067v1.067h1.067v-1.067z"></path>
<path fill="#212121" style="fill: var(--color1, #212121)" d="M24.715 14.159c-0.287-0.388-0.709-0.637-1.188-0.705-0.481-0.068-0.956 0.058-1.34 0.352l-1.252 0.96-1.898 1.417-1.358-0.541c2.421-1.086 4.114-3.508 4.114-6.32 0-3.823-3.123-6.933-6.961-6.933s-6.961 3.11-6.961 6.933c0 1.386 0.414 2.674 1.12 3.758l-2.764-0.024c-0.002 0-0.003 0-0.005 0-0.009 0-0.015 0.004-0.023 0.005-0.053 0.002-0.105 0.013-0.155 0.031-0.013 0.005-0.026 0.008-0.038 0.013-0.006 0.003-0.013 0.003-0.019 0.006l-3.233 1.596c-0.001 0-0.001 0-0.001 0.001l-1.893 0.911c-0.021 0.009-0.042 0.021-0.063 0.035-0.755 0.502-1.012 1.489-0.598 2.295 0.22 0.429 0.595 0.745 1.056 0.889 0.178 0.055 0.359 0.083 0.539 0.083 0.29 0 0.577-0.071 0.839-0.211l1.388-0.738 2.264-1.169 1.357-0.008-5.442 5.416c-0.001 0.001-0.001 0.001-0.002 0.001l-1.339 1.333c-0.316 0.315-0.49 0.732-0.49 1.178s0.174 0.863 0.49 1.179c0.325 0.323 0.752 0.485 1.179 0.485s0.854-0.162 1.18-0.485l1.314-1.309 1.741-1.3 0.901 0.897-1.762 1.754c-0 0.001-0.001 0.001-0.002 0.001l-1.339 1.333c-0.316 0.315-0.49 0.732-0.49 1.178s0.174 0.863 0.49 1.179c0.325 0.323 0.753 0.485 1.18 0.485s0.855-0.162 1.18-0.485l3.482-3.467c0.001-0.001 0.001-0.001 0.001-0.002l1.010-1-0.004-0.004c0.006-0.006 0.015-0.009 0.022-0.015l5.166-5.658 3.471 0.494c0.025 0.004 0.050 0.005 0.075 0.005 0.065 0 0.127-0.015 0.187-0.038 0.018-0.006 0.033-0.015 0.050-0.023 0.019-0.010 0.039-0.015 0.058-0.027l3.213-2.133c0.012-0.008 0.018-0.021 0.029-0.029 0.013-0.010 0.029-0.014 0.041-0.026l1.271-1.191c0.662-0.62 0.753-1.635 0.212-2.362zM2.13 17.77c-0.173 0.093-0.37 0.111-0.558 0.052-0.187-0.058-0.338-0.186-0.427-0.358-0.161-0.314-0.068-0.695 0.214-0.902l1.314-0.632 0.449 1.313-0.992 0.527zM5.628 15.942l-1.548 0.8-0.439-1.283 2.027-1.001-0.040 1.484zM20.727 9.322c0 0.918-0.219 1.785-0.599 2.559l-4.181-1.899c-0.044-0.573-0.341-1.075-0.788-1.388l1.464-4.86c2.378 0.756 4.105 2.974 4.105 5.588zM8.938 9.322c0-3.235 2.644-5.867 5.894-5.867 0.253 0 0.5 0.021 0.745 0.052l-1.432 4.754c-0.019-0.001-0.037-0.006-0.057-0.006-1.033 0-1.873 0.837-1.873 1.867s0.84 1.867 1.873 1.867c0.694 0 1.294-0.383 1.618-0.945l3.862 1.755c-1.075 1.446-2.795 2.39-4.737 2.39-3.25 0-5.894-2.632-5.894-5.867zM14.894 10.122c0 0.441-0.362 0.8-0.806 0.8s-0.806-0.359-0.806-0.8c0-0.441 0.362-0.8 0.806-0.8s0.806 0.359 0.806 0.8zM2.465 25.146c-0.236 0.234-0.619 0.234-0.854 0.001-0.114-0.114-0.176-0.263-0.176-0.423s0.062-0.309 0.176-0.421l0.962-0.959 0.851 0.848-0.959 0.955zM5.679 28.88c-0.236 0.234-0.619 0.235-0.855 0.001-0.114-0.114-0.176-0.263-0.176-0.423s0.062-0.309 0.176-0.421l0.963-0.959 0.852 0.848-0.96 0.955zM9.16 25.411c-0.001 0-0.001 0-0.002 0.001l-1.765 1.76-0.852-0.848 1.763-1.755c0 0 0 0 0-0s0.001-0.001 0.002-0.001c0.040-0.040 0.065-0.088 0.090-0.135 0.007-0.014 0.020-0.026 0.026-0.040 0.017-0.041 0.019-0.085 0.026-0.129 0.003-0.025 0.014-0.047 0.014-0.073 0-0.036-0.013-0.070-0.020-0.106-0.006-0.032-0.006-0.065-0.019-0.095-0.020-0.050-0.055-0.094-0.091-0.138-0.010-0.012-0.014-0.027-0.025-0.038 0 0 0 0-0.001 0s-0.001-0.002-0.001-0.002l-1.607-1.6c-0.017-0.017-0.039-0.024-0.058-0.038-0.028-0.022-0.055-0.042-0.087-0.058-0.030-0.015-0.061-0.024-0.093-0.033-0.034-0.010-0.067-0.017-0.103-0.020-0.033-0.002-0.063 0.001-0.095 0.005-0.036 0.004-0.069 0.009-0.104 0.020-0.034 0.011-0.063 0.027-0.094 0.045-0.020 0.011-0.042 0.015-0.061 0.029l-1.773 1.324-0.901-0.897 2.399-2.386 4.361 4.289-0.928 0.919zM15.979 18.394c-0.015-0.002-0.030 0.004-0.045 0.003-0.039-0.002-0.076 0.001-0.115 0.007-0.030 0.005-0.059 0.011-0.088 0.021-0.034 0.012-0.065 0.028-0.097 0.047-0.030 0.018-0.057 0.037-0.083 0.061-0.013 0.011-0.028 0.017-0.040 0.029l-4.698 5.146-4.328-4.257 2.833-2.818c0.209-0.208 0.21-0.546 0.002-0.755-0.105-0.105-0.243-0.157-0.381-0.156v-0.001l-2.219 0.013 0.028-1.607 3.104 0.027c1.265 1.294 3.029 2.101 4.981 2.101 0.437 0 0.864-0.045 1.279-0.123 0.040 0.032 0.079 0.065 0.13 0.085l2.41 0.96 0.152 0.758 0.178 0.885-3.003-0.427zM20.020 18.572l-0.313-1.558 1.446-1.080 0.947 1.257-2.080 1.381zM23.774 15.741l-0.838 0.785-0.931-1.236 0.831-0.637c0.155-0.119 0.351-0.168 0.543-0.143 0.193 0.027 0.364 0.128 0.48 0.284 0.217 0.292 0.18 0.699-0.085 0.947z"></path>
<path fill="#212121" style="fill: var(--color1, #212121)" d="M13.602 18.544l-2.143-2.133c-0.207-0.207-0.545-0.207-0.753 0l-2.142 2.133c-0.1 0.101-0.157 0.236-0.157 0.378s0.056 0.278 0.157 0.378l2.142 2.133c0.104 0.103 0.241 0.155 0.377 0.155s0.273-0.052 0.376-0.155l2.143-2.133c0.1-0.1 0.157-0.236 0.157-0.378s-0.057-0.278-0.157-0.378zM11.083 20.303l-1.387-1.381 1.387-1.381 1.387 1.381-1.387 1.381z"></path>
<path fill="#212121" style="fill: var(--color1, #212121)" d="M17.164 5.071l-0.258 1.036c0.071 0.018 1.738 0.452 1.738 2.149h1.067c-0-2.017-1.666-2.965-2.547-3.185z"></path>
<path fill="#212121" style="fill: var(--color1, #212121)" d="M19.711 9.322h-1.067v1.067h1.067v-1.067z"></path>
</symbol>
<symbol id="icon-brand" viewBox="0 0 40 32">
<path fill="#afb1b8" style="fill: var(--color3, #afb1b8)" d="M3.055 26.742c0.156 0.194 0.24 0.438 0.236 0.688 0.008 0.163-0.021 0.326-0.084 0.476s-0.159 0.285-0.281 0.393c-0.304 0.231-0.681 0.343-1.061 0.317h-1.865v-4.361h1.827c0.361-0.024 0.718 0.078 1.012 0.29 0.118 0.099 0.211 0.224 0.273 0.366s0.089 0.296 0.081 0.45c0.011 0.241-0.065 0.477-0.212 0.667-0.142 0.173-0.338 0.293-0.556 0.341 0.247 0.045 0.471 0.177 0.63 0.373zM0.868 26.084h0.781c0.177 0.013 0.354-0.038 0.496-0.145 0.059-0.053 0.104-0.12 0.133-0.193s0.041-0.153 0.034-0.233c0.006-0.079-0.006-0.158-0.035-0.232s-0.073-0.14-0.13-0.194c-0.147-0.11-0.329-0.162-0.511-0.147h-0.768v1.144zM2.222 27.756c0.063-0.055 0.112-0.123 0.144-0.2s0.046-0.16 0.041-0.243c0.005-0.084-0.010-0.168-0.042-0.246s-0.083-0.147-0.146-0.202c-0.153-0.114-0.341-0.17-0.53-0.158h-0.819v1.199h0.83c0.187 0.011 0.372-0.043 0.524-0.151z"></path>
<path fill="#afb1b8" style="fill: var(--color3, #afb1b8)" d="M6.79 28.617l-1.016-1.704h-0.382v1.704h-0.874v-4.361h1.655c0.417-0.029 0.83 0.104 1.152 0.371 0.231 0.237 0.371 0.549 0.393 0.879s-0.073 0.659-0.27 0.925c-0.204 0.235-0.483 0.391-0.789 0.443l1.082 1.743h-0.951zM5.392 26.318h0.715c0.497 0 0.745-0.22 0.745-0.66 0.005-0.090-0.008-0.18-0.040-0.264s-0.080-0.161-0.143-0.226c-0.157-0.131-0.359-0.195-0.562-0.177h-0.724l0.008 1.327z"></path>
<path fill="#afb1b8" style="fill: var(--color3, #afb1b8)" d="M11.568 27.739h-1.742l-0.308 0.878h-0.917l1.6-4.312h0.991l1.593 4.312h-0.917l-0.301-0.878zM11.335 27.079l-0.637-1.841-0.637 1.841h1.273z"></path>
<path fill="#afb1b8" style="fill: var(--color3, #afb1b8)" d="M17.55 28.617h-0.868l-1.946-2.965v2.965h-0.866v-4.361h0.866l1.946 2.983v-2.983h0.868v4.361z"></path>
<path fill="#afb1b8" style="fill: var(--color3, #afb1b8)" d="M22.502 27.573c-0.179 0.329-0.453 0.597-0.785 0.769-0.378 0.192-0.797 0.286-1.22 0.275h-1.545v-4.361h1.545c0.422-0.011 0.841 0.081 1.22 0.268 0.332 0.168 0.606 0.433 0.785 0.761 0.179 0.355 0.272 0.747 0.272 1.144s-0.093 0.789-0.272 1.144zM21.509 27.469c0.248-0.29 0.384-0.659 0.384-1.041s-0.136-0.751-0.384-1.041c-0.299-0.262-0.69-0.396-1.086-0.371h-0.603v2.823h0.603c0.397 0.025 0.787-0.108 1.086-0.371z"></path>
<path fill="#afb1b8" style="fill: var(--color3, #afb1b8)" d="M12.111 0c0 0 11.201 4.246 10.963 10.39v10.392c0 0-11.193-4.248-10.959-10.392l-0.004-10.39z"></path>
<path fill="#afb1b8" style="fill: var(--color3, #afb1b8)" d="M33.054 18.349c2.115-1.462 4.562-2.367 7.117-2.633v-3.253c-2.943 1.139-5.44 3.204-7.117 5.886z"></path>
<path fill="#afb1b8" style="fill: var(--color3, #afb1b8)" d="M31.783 19.329c1.731-3.5 4.733-6.202 8.388-7.548v-9.374c0 0-15.952 6.048-15.614 14.797v14.795c0 0 0.711-0.27 1.829-0.778 0-0.473 0-0.95 0.051-1.43 0.33-4.062 2.253-7.826 5.347-10.464z"></path>
<path fill="#afb1b8" style="fill: var(--color3, #afb1b8)" d="M30.266 24.825c0.084-1.026 0.271-2.041 0.558-3.029-1.926 2.279-3.093 5.106-3.335 8.085-0.023 0.281-0.036 0.562-0.042 0.852 0.906-0.437 1.96-0.982 3.068-1.623-0.283-1.409-0.366-2.851-0.248-4.284z"></path>
<path fill="#afb1b8" style="fill: var(--color3, #afb1b8)" d="M30.9 24.878c-0.106 1.296-0.040 2.601 0.197 3.879 4.358-2.618 9.255-6.664 9.067-11.553v-0.426c-3.114 0.35-6.027 1.716-8.292 3.89-0.53 1.347-0.858 2.766-0.972 4.21z"></path>
</symbol>
<symbol id="icon-clock" viewBox="0 0 32 32">
<path fill="#212121" style="fill: var(--color1, #212121)" d="M31.297 15.301c-0.002-8.452-6.855-15.303-15.308-15.301s-15.303 6.855-15.301 15.308c0.001 6.658 4.307 12.551 10.649 14.576 0.061 0.019 0.124 0.029 0.187 0.029 0.121-0 0.239-0.032 0.343-0.094 0.135-0.080 0.236-0.207 0.283-0.356l3.865-12.25c1.057-0.005 1.909-0.866 1.903-1.923s-0.866-1.909-1.923-1.903c-0.284 0.001-0.565 0.067-0.82 0.191l-5.106-5.107c-0.253-0.245-0.657-0.238-0.902 0.016-0.239 0.247-0.239 0.639 0 0.886l5.103 5.109c-0.392 0.799-0.168 1.764 0.536 2.309l-3.683 11.673c-7.278-2.681-11.004-10.754-8.323-18.032s10.754-11.004 18.032-8.323c7.278 2.681 11.004 10.754 8.324 18.032-1.31 3.556-4.001 6.431-7.462 7.973l-0.398-1.874c-0.073-0.344-0.411-0.565-0.756-0.492-0.109 0.023-0.209 0.074-0.292 0.148l-3.837 3.426c-0.263 0.234-0.287 0.637-0.052 0.9 0.076 0.085 0.174 0.149 0.283 0.184l4.899 1.563c0.335 0.108 0.694-0.077 0.802-0.412 0.034-0.106 0.040-0.219 0.017-0.328l-0.391-1.839c5.664-2.388 9.342-7.942 9.329-14.089zM15.992 14.664c0.352 0 0.638 0.286 0.638 0.638s-0.286 0.638-0.638 0.638c-0.352 0-0.638-0.285-0.638-0.638s0.285-0.638 0.638-0.638zM18.093 29.528l2.184-1.948 0.603 2.84-2.787-0.892z"></path>
<path fill="#2196f3" style="fill: var(--color2, #2196f3)" d="M15.354 3.185v1.275c0 0.352 0.285 0.638 0.638 0.638s0.638-0.285 0.638-0.638v-1.275c0-0.352-0.286-0.638-0.638-0.638s-0.638 0.286-0.638 0.638z"></path>
<path fill="#2196f3" style="fill: var(--color2, #2196f3)" d="M3.876 14.664c-0.352 0-0.638 0.286-0.638 0.638s0.285 0.638 0.638 0.638h1.275c0.352 0 0.638-0.285 0.638-0.638s-0.285-0.638-0.638-0.638h-1.275z"></path>
<path fill="#2196f3" style="fill: var(--color2, #2196f3)" d="M28.108 15.939c0.352 0 0.638-0.285 0.638-0.638s-0.285-0.638-0.638-0.638h-1.275c-0.352 0-0.638 0.286-0.638 0.638s0.286 0.638 0.638 0.638h1.275z"></path>
</symbol>
<symbol id="icon-compane-two" viewBox="0 0 35 32">
<path fill="#afb1b8" style="fill: var(--color3, #afb1b8)" d="M5.491 31.394c0.013 0 0.026 0.003 0.038 0.007s0.022 0.011 0.031 0.019l0.178 0.162c-0.138 0.131-0.309 0.236-0.501 0.307-0.225 0.078-0.467 0.116-0.71 0.11-0.229 0.004-0.456-0.031-0.668-0.103-0.191-0.066-0.362-0.165-0.503-0.291-0.143-0.13-0.254-0.283-0.325-0.449-0.078-0.185-0.116-0.38-0.114-0.576-0.003-0.197 0.038-0.393 0.122-0.578 0.078-0.167 0.195-0.32 0.345-0.449 0.152-0.127 0.334-0.226 0.534-0.293 0.219-0.070 0.453-0.105 0.688-0.103 0.218-0.004 0.436 0.028 0.639 0.094 0.176 0.063 0.338 0.151 0.479 0.26l-0.149 0.173c-0.010 0.012-0.023 0.023-0.038 0.031-0.018 0.010-0.039 0.015-0.060 0.013-0.023-0.001-0.045-0.008-0.065-0.018l-0.080-0.046-0.111-0.059c-0.048-0.022-0.098-0.041-0.149-0.057-0.066-0.020-0.134-0.035-0.203-0.046-0.087-0.013-0.176-0.019-0.265-0.018-0.169-0.002-0.337 0.025-0.494 0.077-0.146 0.049-0.278 0.123-0.387 0.217-0.111 0.1-0.196 0.218-0.252 0.346-0.063 0.146-0.094 0.301-0.091 0.457-0.003 0.158 0.028 0.315 0.091 0.464 0.054 0.127 0.138 0.244 0.247 0.344 0.102 0.093 0.228 0.166 0.369 0.214 0.145 0.050 0.301 0.075 0.458 0.074 0.091 0.001 0.182-0.004 0.272-0.015 0.147-0.015 0.288-0.057 0.412-0.123 0.062-0.034 0.121-0.072 0.176-0.114 0.023-0.018 0.053-0.029 0.085-0.029v0z"></path>
<path fill="#afb1b8" style="fill: var(--color3, #afb1b8)" d="M10.632 30.58c0.003 0.195-0.038 0.389-0.12 0.573-0.073 0.166-0.187 0.318-0.335 0.445s-0.328 0.226-0.526 0.292c-0.436 0.137-0.918 0.137-1.353 0-0.197-0.066-0.375-0.166-0.523-0.293-0.148-0.129-0.263-0.282-0.338-0.449-0.16-0.371-0.16-0.776 0-1.147 0.076-0.167 0.191-0.32 0.338-0.451 0.149-0.123 0.327-0.218 0.523-0.282 0.435-0.14 0.918-0.14 1.353 0 0.198 0.066 0.377 0.166 0.525 0.293 0.146 0.128 0.261 0.279 0.336 0.444 0.082 0.184 0.123 0.38 0.12 0.576zM10.165 30.58c0.003-0.156-0.025-0.312-0.085-0.46-0.050-0.127-0.131-0.244-0.238-0.344-0.104-0.095-0.233-0.169-0.376-0.217-0.317-0.101-0.667-0.101-0.984 0-0.143 0.048-0.272 0.123-0.376 0.217-0.109 0.099-0.191 0.217-0.24 0.344-0.113 0.3-0.113 0.621 0 0.92 0.050 0.127 0.132 0.245 0.24 0.344 0.104 0.094 0.233 0.168 0.376 0.215 0.317 0.098 0.667 0.098 0.984 0 0.143-0.048 0.272-0.121 0.376-0.215 0.107-0.1 0.188-0.217 0.238-0.344 0.060-0.148 0.088-0.304 0.085-0.46v0z"></path>
<path fill="#afb1b8" style="fill: var(--color3, #afb1b8)" d="M14.14 31.062l0.047 0.103c0.018-0.037 0.033-0.070 0.051-0.103 0.017-0.035 0.036-0.068 0.058-0.101l1.137-1.71c0.022-0.029 0.042-0.048 0.065-0.053 0.030-0.008 0.062-0.011 0.094-0.009h0.336v2.781h-0.398v-2.045c0-0.026 0-0.055 0-0.086-0.002-0.032-0.002-0.064 0-0.096l-1.144 1.734c-0.014 0.026-0.038 0.048-0.067 0.063s-0.063 0.023-0.098 0.023h-0.065c-0.035 0-0.069-0.008-0.098-0.023s-0.052-0.037-0.067-0.064l-1.177-1.745c0 0.033 0 0.066 0 0.099s0 0.063 0 0.088v2.045h-0.385v-2.776h0.336c0.032-0.002 0.063 0.002 0.094 0.009 0.028 0.011 0.050 0.030 0.062 0.053l1.162 1.712c0.023 0.032 0.042 0.065 0.058 0.099v0z"></path>
<path fill="#afb1b8" style="fill: var(--color3, #afb1b8)" d="M18.42 30.924v1.042h-0.445v-2.777h0.993c0.187-0.003 0.374 0.018 0.554 0.061 0.144 0.034 0.278 0.093 0.392 0.173 0.099 0.075 0.175 0.169 0.223 0.272 0.053 0.113 0.078 0.234 0.076 0.355 0.002 0.122-0.026 0.243-0.082 0.355-0.054 0.107-0.136 0.202-0.24 0.278-0.114 0.084-0.248 0.146-0.394 0.184-0.173 0.046-0.355 0.068-0.536 0.064l-0.539-0.007zM18.42 30.626h0.539c0.117 0.001 0.233-0.013 0.345-0.042 0.092-0.026 0.177-0.066 0.249-0.12 0.067-0.051 0.119-0.114 0.151-0.184 0.036-0.074 0.055-0.154 0.053-0.234 0.005-0.077-0.010-0.154-0.045-0.226s-0.088-0.137-0.156-0.19c-0.17-0.11-0.384-0.163-0.599-0.149h-0.539v1.145z"></path>
<path fill="#afb1b8" style="fill: var(--color3, #afb1b8)" d="M24.403 31.97h-0.352c-0.035 0.001-0.070-0.008-0.098-0.026-0.025-0.017-0.045-0.039-0.058-0.064l-0.303-0.672h-1.52l-0.314 0.672c-0.012 0.025-0.031 0.046-0.056 0.063-0.028 0.019-0.064 0.029-0.1 0.028h-0.352l1.335-2.782h0.463l1.353 2.782zM22.2 30.937h1.255l-0.53-1.132c-0.041-0.085-0.074-0.173-0.1-0.261l-0.051 0.145c-0.015 0.044-0.033 0.085-0.049 0.118l-0.525 1.13z"></path>
<path fill="#afb1b8" style="fill: var(--color3, #afb1b8)" d="M26.326 29.201c0.027 0.012 0.049 0.029 0.067 0.050l1.947 2.097c0-0.033 0-0.066 0-0.098s0-0.063 0-0.092v-1.97h0.398v2.781h-0.223c-0.032 0.001-0.063-0.005-0.091-0.017-0.027-0.013-0.052-0.031-0.071-0.052l-1.945-2.095c0.002 0.032 0.002 0.064 0 0.096 0 0.031 0 0.059 0 0.085v1.983h-0.398v-2.781h0.236c0.028-0.001 0.055 0.004 0.080 0.013v0z"></path>
<path fill="#afb1b8" style="fill: var(--color3, #afb1b8)" d="M32.019 30.863v1.105h-0.445v-1.105l-1.231-1.675h0.398c0.034-0.002 0.068 0.007 0.096 0.024 0.024 0.018 0.045 0.039 0.060 0.063l0.77 1.081c0.031 0.046 0.058 0.088 0.080 0.129s0.040 0.079 0.056 0.118l0.058-0.12c0.022-0.044 0.047-0.086 0.076-0.127l0.759-1.088c0.016-0.022 0.035-0.042 0.058-0.059 0.026-0.019 0.061-0.029 0.096-0.028h0.403l-1.233 1.682z"></path>
<path fill="#afb1b8" style="fill: var(--color3, #afb1b8)" d="M13.92 24.521c0.194 0.020 0.39 0.037 0.588 0.052 3.003-1.111 5.544-2.93 7.304-5.228s2.663-4.975 2.594-7.696l-3.31-2.737c0.673 2.896 0.358 5.89-0.909 8.647s-3.437 5.168-6.267 6.962v0z"></path>
<path fill="#afb1b8" style="fill: var(--color3, #afb1b8)" d="M12.738 24.393l0.089 0.015c3.024-1.789 5.329-4.286 6.618-7.17s1.502-6.021 0.612-9.006l-4.714-3.899c1.907 3.205 2.674 6.791 2.213 10.342s-2.132 6.921-4.817 9.718v0z"></path>
<path fill="#afb1b8" style="fill: var(--color3, #afb1b8)" d="M28.725 14.862c-0.801 2.989-2.746 5.685-5.547 7.687-0.818 0.588-1.7 1.112-2.635 1.565 2.28-0.554 4.376-1.534 6.126-2.865s3.107-2.975 3.967-4.808l-1.912-1.579z"></path>
<path fill="#afb1b8" style="fill: var(--color3, #afb1b8)" d="M27.975 14.422l-2.722-2.251c-0.052 2.567-0.934 5.075-2.555 7.264s-3.921 3.979-6.662 5.185h0.013c0.611-0 1.221-0.030 1.827-0.090 2.561-0.865 4.824-2.24 6.586-4.004s2.969-3.861 3.512-6.104v0z"></path>
<path fill="#afb1b8" style="fill: var(--color3, #afb1b8)" d="M13.132 2.689l-3.247-2.689c-2.903 0.928-5.4 2.559-7.163 4.679s-2.712 4.632-2.721 7.206v0c0.011 2.844 1.168 5.604 3.289 7.843s5.084 3.829 8.42 4.518c2.978-3.001 4.722-6.709 4.978-10.586s-0.99-7.72-3.556-10.971v0z"></path>
<path fill="#afb1b8" style="fill: var(--color3, #afb1b8)" d="M35.478 14.008c-0.012-3.374-1.638-6.608-4.523-8.994s-6.795-3.731-10.875-3.74v0c-1.885-0.002-3.755 0.286-5.513 0.849l19.883 16.443c0.681-1.454 1.029-2.999 1.028-4.558v0z"></path>
</symbol>
<symbol id="icon-diagram" viewBox="0 0 32 32">
<path fill="#2196f3" style="fill: var(--color2, #2196f3)" d="M14.926 14.965h1.066v4.798h-1.066v-4.797z"></path>
<path fill="#2196f3" style="fill: var(--color2, #2196f3)" d="M19.19 17.097h1.066v2.665h-1.066v-2.665z"></path>
<path fill="#2196f3" style="fill: var(--color2, #2196f3)" d="M10.661 18.696h1.066v1.066h-1.066v-1.066z"></path>
<path fill="#2196f3" style="fill: var(--color2, #2196f3)" d="M7.463 18.163h1.066v1.599h-1.066v-1.599z"></path>
<path fill="#212121" style="fill: var(--color1, #212121)" d="M1.599 28.291h25.587c0.883 0 1.599-0.716 1.599-1.599v-2.132c0-0.883-0.716-1.599-1.599-1.599h-0.533v-13.293l3.028-2.868c0.703 0.346 1.553 0.136 2.013-0.499s0.396-1.508-0.152-2.068-1.42-0.644-2.065-0.198c-0.644 0.446-0.873 1.292-0.542 2.002l-2.281 2.163v-1.23c0-0.883-0.716-1.599-1.599-1.599h-21.322c-0.883 0-1.599 0.716-1.599 1.599v15.992h-0.533c-0.883 0-1.599 0.716-1.599 1.599v2.132c0 0.883 0.716 1.599 1.599 1.599zM30.384 4.837c0.294 0 0.533 0.239 0.533 0.533s-0.239 0.533-0.533 0.533c-0.294 0-0.533-0.239-0.533-0.533s0.239-0.533 0.533-0.533zM3.198 6.969c0-0.294 0.239-0.533 0.533-0.533h21.322c0.294 0 0.533 0.239 0.533 0.533v2.239l-1.066 1.013v-2.186c0-0.294-0.239-0.533-0.533-0.533h-19.19c-0.294 0-0.533 0.239-0.533 0.533v13.326c0 0.294 0.239 0.533 0.533 0.533h19.19c0.294 0 0.533-0.239 0.533-0.533v-9.674l1.066-1.010v12.284h-22.388v-15.992zM7.996 13.899c-0.721-0.002-1.354 0.478-1.546 1.174s0.105 1.433 0.725 1.801c0.62 0.368 1.41 0.276 1.928-0.226l1.853 0.93c0.215 0.108 0.476 0.057 0.636-0.123l3.939-4.431 3.872 2.901c0.208 0.156 0.498 0.139 0.686-0.039l3.365-3.188v8.131h-18.124v-12.26h18.124v2.66l-3.771 3.572-3.904-2.927c-0.222-0.166-0.534-0.135-0.718 0.072l-3.993 4.493-1.493-0.746c0.011-0.064 0.018-0.129 0.020-0.193 0-0.883-0.716-1.599-1.599-1.599zM8.529 15.498c0 0.294-0.239 0.533-0.533 0.533s-0.533-0.239-0.533-0.533c0-0.294 0.239-0.533 0.533-0.533s0.533 0.239 0.533 0.533zM11.727 24.026h5.331v0.533c0 0.294-0.239 0.533-0.533 0.533h-4.264c-0.294 0-0.533-0.239-0.533-0.533v-0.533zM1.066 24.56c0-0.294 0.239-0.533 0.533-0.533h9.062v0.533c0 0.883 0.716 1.599 1.599 1.599h4.264c0.883 0 1.599-0.716 1.599-1.599v-0.533h9.062c0.294 0 0.533 0.239 0.533 0.533v2.132c0 0.294-0.239 0.533-0.533 0.533h-25.587c-0.294 0-0.533-0.239-0.533-0.533v-2.132z"></path>
</symbol>
<symbol id="icon-facebook" viewBox="0 0 32 32">
<path fill="#fff" style="fill: var(--color4, #fff)" d="M32 16c0 4.418-1.791 8.418-4.686 11.314s-6.895 4.686-11.314 4.686-8.418-1.791-11.314-4.686c-2.895-2.895-4.686-6.895-4.686-11.314s1.791-8.418 4.686-11.314 6.895-4.686 11.314-4.686c4.418 0 8.418 1.791 11.314 4.686s4.686 6.895 4.686 11.314z"></path>
<path fill="#afb1b8" style="fill: var(--color3, #afb1b8)" d="M18.422 11.142h1.328v-2.313c-0.229-0.031-1.017-0.102-1.935-0.102-1.915 0-3.226 1.204-3.226 3.418v2.037h-2.113v2.585h2.113v6.505h2.59v-6.505h2.027l0.322-2.585h-2.35v-1.781c0.001-0.747 0.202-1.259 1.243-1.259z"></path>
</symbol>
<symbol id="icon-instagram" viewBox="0 0 32 32">
<path fill="#fff" style="fill: var(--color4, #fff)" d="M32 16c0 4.418-1.791 8.418-4.686 11.314s-6.895 4.686-11.314 4.686-8.418-1.791-11.314-4.686c-2.895-2.895-4.686-6.895-4.686-11.314s1.791-8.418 4.686-11.314 6.895-4.686 11.314-4.686c4.418 0 8.418 1.791 11.314 4.686s4.686 6.895 4.686 11.314z"></path>
<path fill="#afb1b8" style="fill: var(--color3, #afb1b8)" d="M23.258 13.004c-0.034-0.773-0.159-1.304-0.338-1.765-0.185-0.489-0.469-0.926-0.841-1.29-0.364-0.369-0.804-0.656-1.287-0.838-0.463-0.179-0.992-0.304-1.764-0.338-0.779-0.037-1.026-0.046-3.001-0.046s-2.222 0.009-2.998 0.043c-0.773 0.034-1.304 0.159-1.764 0.338-0.489 0.185-0.926 0.469-1.29 0.841-0.369 0.364-0.656 0.804-0.838 1.287-0.179 0.463-0.304 0.992-0.338 1.764-0.037 0.779-0.046 1.026-0.046 3.001s0.009 2.222 0.043 2.998c0.034 0.773 0.159 1.304 0.338 1.765 0.185 0.489 0.472 0.926 0.841 1.29 0.364 0.369 0.804 0.656 1.287 0.838 0.463 0.179 0.992 0.304 1.765 0.338 0.776 0.034 1.023 0.043 2.998 0.043s2.222-0.008 2.998-0.043c0.773-0.034 1.304-0.159 1.764-0.338 0.978-0.378 1.75-1.151 2.128-2.128 0.179-0.463 0.304-0.992 0.338-1.765 0.034-0.776 0.043-1.023 0.043-2.998s-0.003-2.222-0.037-2.998zM21.949 18.942c-0.031 0.71-0.151 1.094-0.25 1.35-0.244 0.634-0.747 1.137-1.381 1.381-0.256 0.099-0.642 0.219-1.35 0.25-0.767 0.034-0.997 0.043-2.938 0.043s-2.174-0.008-2.938-0.043c-0.71-0.031-1.094-0.15-1.35-0.25-0.315-0.116-0.602-0.301-0.835-0.543-0.242-0.236-0.426-0.52-0.543-0.835-0.1-0.256-0.219-0.642-0.25-1.35-0.034-0.767-0.043-0.997-0.043-2.938s0.008-2.174 0.043-2.938c0.031-0.71 0.15-1.094 0.25-1.35 0.117-0.315 0.301-0.602 0.546-0.835 0.236-0.242 0.52-0.426 0.835-0.543 0.256-0.099 0.642-0.219 1.35-0.25 0.767-0.034 0.997-0.043 2.938-0.043 1.944 0 2.174 0.008 2.938 0.043 0.71 0.031 1.094 0.151 1.35 0.25 0.315 0.116 0.602 0.301 0.835 0.543 0.242 0.236 0.426 0.52 0.543 0.835 0.099 0.256 0.219 0.642 0.25 1.35 0.034 0.767 0.043 0.997 0.043 2.938s-0.009 2.168-0.043 2.935z"></path>
<path fill="#afb1b8" style="fill: var(--color3, #afb1b8)" d="M16.027 12.265c-2.063 0-3.736 1.674-3.736 3.736s1.674 3.736 3.736 3.736c2.063 0 3.736-1.674 3.736-3.736s-1.674-3.736-3.736-3.736zM16.027 18.425c-1.338 0-2.424-1.085-2.424-2.424s1.086-2.424 2.424-2.424c1.338 0 2.424 1.085 2.424 2.424s-1.085 2.424-2.424 2.424z"></path>
<path fill="#afb1b8" style="fill: var(--color3, #afb1b8)" d="M20.784 12.117c0 0.482-0.391 0.872-0.872 0.872s-0.872-0.391-0.872-0.872c0-0.482 0.391-0.872 0.872-0.872s0.872 0.39 0.872 0.872z"></path>
</symbol>
<symbol id="icon-linkedin" viewBox="0 0 32 32">
<path fill="#afb1b8" style="fill: var(--color3, #afb1b8)" d="M31.992 32v-0.001h0.008v-11.736c0-5.741-1.236-10.164-7.948-10.164-3.227 0-5.392 1.771-6.276 3.449h-0.093v-2.913h-6.364v21.364h6.627v-10.579c0-2.785 0.528-5.479 3.977-5.479 3.399 0 3.449 3.179 3.449 5.657v10.401h6.62z"></path>
<path fill="#afb1b8" style="fill: var(--color3, #afb1b8)" d="M0.528 10.636h6.635v21.364h-6.635v-21.364z"></path>
<path fill="#afb1b8" style="fill: var(--color3, #afb1b8)" d="M3.843 0c-2.121 0-3.843 1.721-3.843 3.843s1.721 3.879 3.843 3.879c2.121 0 3.843-1.757 3.843-3.879-0.001-2.121-1.723-3.843-3.843-3.843v0z"></path>
</symbol>
<symbol id="icon-logo" viewBox="0 0 25 32">
<path fill="#afb1b8" style="fill: var(--color3, #afb1b8)" d="M10.447 1.806h0.084c0.156 0 0.324 0.016 0.49 0.030 0.734 0.052 1.463 0.162 2.179 0.329v-1.762c-0.738-0.185-1.491-0.305-2.25-0.358-0.288-0.022-0.595-0.036-0.909-0.044h-0.263c-1.523 0.006-3.039 0.201-4.515 0.582-1.68 0.419-3.293 1.075-4.79 1.948v17.475c1.442-0.783 2.976-1.381 4.566-1.779 1.256-0.32 2.539-0.517 3.833-0.588h0.051c0.216-0.011 0.433-0.017 0.655-0.019v-1.79c-1.681 0.022-3.353 0.244-4.982 0.662-0.602 0.157-1.185 0.325-1.731 0.513l-0.623 0.211v-13.625l0.266-0.128c2.032-0.963 4.229-1.524 6.471-1.651 0.019-0.001 0.037-0.001 0.056 0 0.248-0.013 0.497-0.019 0.741-0.019h0.28c0.129 0.003 0.258 0.006 0.388 0.014z"></path>
<path fill="#afb1b8" style="fill: var(--color3, #afb1b8)" d="M14.837 3.651c-0.409 0-0.814-0.014-1.205-0.044-0.467-0.034-0.947-0.091-1.401-0.167-0.277-0.047-0.55-0.103-0.814-0.164v17.275c1.12 0.277 2.271 0.413 3.425 0.404 1.523-0.006 3.039-0.201 4.515-0.581 1.68-0.42 3.294-1.075 4.792-1.948v-17.163c-1.442 0.783-2.975 1.381-4.564 1.781-1.551 0.398-3.145 0.603-4.747 0.609zM21.745 3.95l0.623-0.21v13.63l-0.266 0.128c-1.021 0.486-2.087 0.869-3.184 1.144-1.331 0.344-2.7 0.522-4.074 0.527-0.411 0-0.819-0.017-1.214-0.052l-0.427-0.038v-14.017l0.497 0.033c0.361 0.023 0.735 0.034 1.141 0.034 1.745-0.006 3.482-0.229 5.173-0.663 0.581-0.153 1.158-0.325 1.731-0.518z"></path>
<path fill="#afb1b8" style="fill: var(--color3, #afb1b8)" d="M1.684 25.977c-0.090-0.093-0.197-0.166-0.317-0.214s-0.247-0.071-0.376-0.066c-0.137-0.002-0.273 0.024-0.4 0.075-0.117 0.046-0.222 0.116-0.311 0.205s-0.156 0.196-0.201 0.313c-0.049 0.123-0.073 0.254-0.072 0.387v2.335c-0.006 0.165 0.026 0.328 0.092 0.479 0.055 0.12 0.135 0.226 0.233 0.313 0.093 0.079 0.203 0.135 0.321 0.166 0.114 0.032 0.231 0.048 0.349 0.049 0.13 0.001 0.259-0.027 0.377-0.081 0.117-0.051 0.222-0.124 0.311-0.216 0.087-0.091 0.156-0.197 0.204-0.313 0.050-0.118 0.075-0.244 0.075-0.372v-0.261h-0.61v0.208c0.002 0.071-0.010 0.142-0.036 0.208-0.020 0.050-0.050 0.095-0.089 0.131-0.038 0.031-0.081 0.053-0.128 0.067-0.041 0.014-0.084 0.021-0.128 0.022-0.054 0.006-0.11-0.002-0.16-0.024s-0.094-0.057-0.126-0.101c-0.058-0.094-0.086-0.203-0.081-0.313v-2.177c-0.004-0.121 0.022-0.241 0.075-0.349 0.032-0.049 0.077-0.089 0.129-0.114s0.112-0.034 0.17-0.027c0.053-0.002 0.105 0.009 0.152 0.032s0.089 0.057 0.12 0.099c0.068 0.090 0.104 0.2 0.101 0.313v0.202h0.604v-0.238c0.001-0.14-0.024-0.278-0.075-0.408-0.045-0.122-0.114-0.234-0.204-0.329z"></path>
<path fill="#afb1b8" style="fill: var(--color3, #afb1b8)" d="M5.31 25.95c-0.195-0.164-0.44-0.255-0.694-0.257-0.124 0-0.248 0.023-0.364 0.066-0.119 0.042-0.228 0.107-0.322 0.191-0.101 0.091-0.182 0.202-0.237 0.327-0.061 0.143-0.092 0.297-0.089 0.452v2.239c-0.004 0.158 0.026 0.314 0.089 0.459 0.055 0.12 0.136 0.227 0.237 0.313 0.093 0.087 0.203 0.154 0.322 0.197 0.117 0.043 0.24 0.065 0.364 0.066s0.248-0.023 0.364-0.066c0.121-0.044 0.233-0.111 0.33-0.197 0.097-0.087 0.176-0.194 0.23-0.313 0.063-0.145 0.093-0.301 0.089-0.459v-2.239c0.003-0.155-0.027-0.31-0.089-0.452-0.054-0.123-0.133-0.235-0.23-0.327zM5.025 28.969c0.005 0.060-0.003 0.12-0.024 0.176s-0.054 0.107-0.097 0.148c-0.081 0.068-0.182 0.105-0.287 0.105s-0.207-0.037-0.287-0.105c-0.043-0.041-0.076-0.092-0.097-0.148s-0.029-0.116-0.024-0.176v-2.239c-0.005-0.060 0.003-0.12 0.024-0.176s0.054-0.107 0.097-0.148c0.081-0.068 0.182-0.105 0.287-0.105s0.207 0.037 0.287 0.105c0.043 0.041 0.076 0.092 0.097 0.148s0.029 0.116 0.024 0.176v2.239z"></path>
<path fill="#afb1b8" style="fill: var(--color3, #afb1b8)" d="M10.072 29.969v-4.239h-0.587l-0.771 2.244h-0.011l-0.777-2.244h-0.581v4.239h0.606v-2.579h0.011l0.593 1.823h0.302l0.598-1.823h0.011v2.579h0.606z"></path>
<path fill="#afb1b8" style="fill: var(--color3, #afb1b8)" d="M13.513 26.027c-0.093-0.105-0.211-0.184-0.342-0.232-0.142-0.046-0.29-0.068-0.439-0.066h-0.9v4.239h0.604v-1.656h0.311c0.188 0.009 0.376-0.031 0.545-0.116 0.137-0.076 0.252-0.188 0.332-0.324 0.070-0.113 0.117-0.238 0.139-0.369 0.024-0.16 0.035-0.321 0.033-0.482 0.006-0.204-0.014-0.407-0.059-0.606-0.040-0.147-0.117-0.281-0.223-0.39zM13.201 27.319c-0.003 0.077-0.022 0.152-0.056 0.221-0.035 0.065-0.089 0.117-0.156 0.149-0.089 0.040-0.187 0.058-0.285 0.053h-0.276v-1.441h0.311c0.094-0.005 0.187 0.014 0.273 0.053 0.062 0.036 0.112 0.091 0.142 0.157 0.033 0.074 0.051 0.155 0.053 0.236 0 0.089 0 0.183 0 0.282s0.006 0.2 0 0.291h-0.006z"></path>
<path fill="#afb1b8" style="fill: var(--color3, #afb1b8)" d="M16.374 25.73h-0.495l-0.934 4.239h0.604l0.177-0.911h0.824l0.177 0.911h0.604l-0.957-4.239zM15.817 28.481l0.297-1.537h0.011l0.296 1.537h-0.604z"></path>
<path fill="#afb1b8" style="fill: var(--color3, #afb1b8)" d="M20.277 28.284h-0.011l-0.912-2.554h-0.581v4.239h0.604v-2.549h0.012l0.923 2.549h0.568v-4.239h-0.604v2.554z"></path>
<path fill="#afb1b8" style="fill: var(--color3, #afb1b8)" d="M23.968 25.73l-0.486 1.685h-0.012l-0.486-1.685h-0.64l0.83 2.447v1.792h0.604v-1.792l0.83-2.447h-0.64z"></path>
<path fill="#afb1b8" style="fill: var(--color3, #afb1b8)" d="M0 31.166h0.291v0.817h0.198v-0.817h0.29v-0.167h-0.778v0.167z"></path>
<path fill="#afb1b8" style="fill: var(--color3, #afb1b8)" d="M2.447 30.998l-0.381 0.984h0.21l0.081-0.224h0.392l0.084 0.224h0.215l-0.391-0.984h-0.21zM2.416 31.593l0.134-0.365 0.134 0.365h-0.268z"></path>
<path fill="#afb1b8" style="fill: var(--color3, #afb1b8)" d="M4.866 31.62h0.227v0.127c-0.066 0.053-0.149 0.082-0.234 0.083-0.040 0.002-0.079-0.005-0.116-0.021s-0.068-0.041-0.093-0.072c-0.052-0.075-0.078-0.165-0.073-0.257 0-0.219 0.095-0.329 0.283-0.329 0.050-0.005 0.099 0.008 0.14 0.037s0.070 0.071 0.082 0.12l0.195-0.038c-0.042-0.192-0.181-0.289-0.417-0.289-0.127-0.003-0.25 0.042-0.344 0.127-0.050 0.049-0.088 0.108-0.112 0.174s-0.034 0.135-0.029 0.205c-0.006 0.135 0.039 0.267 0.126 0.369 0.048 0.050 0.107 0.088 0.171 0.113s0.134 0.035 0.203 0.031c0.154 0.004 0.304-0.052 0.417-0.157v-0.388h-0.427v0.166z"></path>
<path fill="#afb1b8" style="fill: var(--color3, #afb1b8)" d="M7.337 30.998h-0.199v0.984h0.69v-0.167h-0.49v-0.817z"></path>
<path fill="#afb1b8" style="fill: var(--color3, #afb1b8)" d="M9.426 30.998h-0.199v0.984h0.199v-0.984z"></path>
<path fill="#afb1b8" style="fill: var(--color3, #afb1b8)" d="M11.469 31.656l-0.403-0.657h-0.193v0.984h0.185v-0.643l0.395 0.643h0.198v-0.984h-0.182v0.657z"></path>
<path fill="#afb1b8" style="fill: var(--color3, #afb1b8)" d="M13.315 31.549h0.49v-0.167h-0.49v-0.216h0.528v-0.167h-0.727v0.984h0.747v-0.167h-0.548v-0.266z"></path>
<path fill="#afb1b8" style="fill: var(--color3, #afb1b8)" d="M17.792 31.387h-0.388v-0.388h-0.198v0.984h0.198v-0.43h0.388v0.43h0.198v-0.984h-0.198v0.388z"></path>
<path fill="#afb1b8" style="fill: var(--color3, #afb1b8)" d="M19.649 31.549h0.492v-0.167h-0.492v-0.216h0.529v-0.167h-0.727v0.984h0.746v-0.167h-0.548v-0.266z"></path>
<path fill="#afb1b8" style="fill: var(--color3, #afb1b8)" d="M22.168 31.549c0.171-0.027 0.258-0.117 0.258-0.274 0.005-0.042-0.001-0.084-0.018-0.123s-0.044-0.072-0.078-0.096c-0.089-0.045-0.189-0.065-0.288-0.058h-0.417v0.984h0.198v-0.412h0.039c0.042-0.003 0.084 0.005 0.123 0.022 0.029 0.018 0.053 0.043 0.070 0.072l0.215 0.313h0.237l-0.12-0.192c-0.053-0.095-0.128-0.176-0.218-0.236zM21.969 31.413h-0.146v-0.247h0.156c0.068-0.005 0.136 0.002 0.201 0.023 0.014 0.013 0.026 0.029 0.033 0.046s0.011 0.037 0.010 0.056c-0.001 0.019-0.006 0.038-0.015 0.055s-0.022 0.032-0.037 0.043c-0.065 0.020-0.133 0.028-0.201 0.023z"></path>
<path fill="#afb1b8" style="fill: var(--color3, #afb1b8)" d="M24.067 31.549h0.49v-0.167h-0.49v-0.216h0.529v-0.167h-0.729v0.984h0.747v-0.167h-0.548v-0.266z"></path>
</symbol>
<symbol id="icon-smartphone" viewBox="0 0 20 32">
<path fill="#757575" style="fill: var(--color5, #757575)" d="M17 0h-14c-1.654 0-3 1.346-3 3v26c0 1.654 1.346 3 3 3h14c1.654 0 3-1.346 3-3v-26c0-1.654-1.346-3-3-3zM3 2h14c0.552 0 1 0.448 1 1v21h-16v-21c0-0.552 0.448-1 1-1zM17 30h-14c-0.552 0-1-0.448-1-1v-3h16v3c0 0.552-0.448 1-1 1z"></path>
<path fill="#757575" style="fill: var(--color5, #757575)" d="M4.707 27.478c0.391 0.365 0.391 0.956 0 1.321s-1.024 0.365-1.414 0c-0.391-0.365-0.391-0.956 0-1.321s1.024-0.365 1.414 0z"></path>
</symbol>
<symbol id="icon-tag" viewBox="0 0 59 32">
<path fill="#afb1b8" style="fill: var(--color3, #afb1b8)" d="M29.606 15.038c-0.277-0.43-0.409-0.938-0.377-1.449v-2.1c0-0.644 0.125-1.133 0.375-1.468s0.68-0.501 1.289-0.5c0.573 0 0.979 0.142 1.219 0.427 0.262 0.364 0.39 0.808 0.361 1.256v0.494h-1.024v-0.5c0.004-0.164-0.006-0.327-0.030-0.489-0.015-0.111-0.066-0.213-0.146-0.291-0.105-0.083-0.238-0.124-0.371-0.113-0.14-0.011-0.28 0.032-0.39 0.12-0.089 0.086-0.149 0.198-0.17 0.32-0.029 0.171-0.043 0.345-0.040 0.519v2.549c-0.016 0.246 0.029 0.492 0.131 0.716 0.051 0.076 0.122 0.136 0.204 0.173s0.174 0.052 0.264 0.040c0.131 0.011 0.261-0.031 0.363-0.115 0.083-0.083 0.137-0.192 0.153-0.31 0.024-0.169 0.035-0.34 0.032-0.511v-0.517h1.024v0.472c0.029 0.467-0.096 0.931-0.354 1.321-0.235 0.312-0.636 0.468-1.226 0.468s-1.035-0.167-1.287-0.513z"></path>
<path fill="#afb1b8" style="fill: var(--color3, #afb1b8)" d="M33.871 15.059c-0.259-0.327-0.388-0.803-0.388-1.434v-2.209c0-0.624 0.129-1.096 0.388-1.417s0.691-0.48 1.298-0.479c0.602 0 1.033 0.16 1.292 0.479 0.259 0.32 0.39 0.793 0.39 1.417v2.209c0 0.624-0.132 1.103-0.395 1.432s-0.691 0.494-1.287 0.494c-0.596 0-1.037-0.167-1.298-0.491zM35.646 14.529c0.093-0.205 0.135-0.429 0.123-0.654v-2.705c0.012-0.22-0.030-0.44-0.121-0.641-0.052-0.077-0.124-0.138-0.209-0.176s-0.178-0.051-0.27-0.038c-0.092-0.013-0.186 0-0.271 0.038s-0.158 0.099-0.211 0.176c-0.093 0.2-0.136 0.42-0.123 0.641v2.718c-0.013 0.225 0.029 0.449 0.123 0.654 0.060 0.069 0.133 0.124 0.216 0.162s0.172 0.057 0.263 0.057c0.091 0 0.181-0.020 0.263-0.057s0.156-0.093 0.216-0.162v-0.013z"></path>
<path fill="#afb1b8" style="fill: var(--color3, #afb1b8)" d="M38.083 9.585h1.103l0.829 4.076 0.848-4.076h1.073l0.108 5.884h-0.793l-0.085-4.089-0.819 4.089h-0.636l-0.848-4.104-0.078 4.104h-0.802l0.1-5.884z"></path>
<path fill="#afb1b8" style="fill: var(--color3, #afb1b8)" d="M43.281 9.585h1.718c0.99 0 1.485 0.557 1.485 1.671 0 1.067-0.521 1.6-1.563 1.598h-0.585v2.615h-1.060l0.006-5.884zM44.749 12.1c0.105 0.013 0.211 0.004 0.312-0.028s0.193-0.086 0.271-0.157c0.122-0.199 0.175-0.432 0.153-0.664 0.006-0.18-0.012-0.359-0.051-0.534-0.015-0.059-0.042-0.113-0.078-0.161s-0.082-0.088-0.134-0.118c-0.147-0.071-0.31-0.104-0.473-0.094h-0.411v1.758h0.411z"></path>
<path fill="#afb1b8" style="fill: var(--color3, #afb1b8)" d="M48.013 9.585h1.139l1.169 5.884h-0.988l-0.231-1.357h-1.016l-0.238 1.357h-1.003l1.169-5.884zM48.986 13.431l-0.397-2.47-0.397 2.47h0.793z"></path>
<path fill="#afb1b8" style="fill: var(--color3, #afb1b8)" d="M51.264 9.585h0.742l1.421 3.356v-3.356h0.88v5.884h-0.706l-1.429-3.504v3.504h-0.91l0.002-5.884z"></path>
<path fill="#afb1b8" style="fill: var(--color3, #afb1b8)" d="M56.369 13.225l-1.181-3.632h0.995l0.721 2.333 0.677-2.333h0.973l-1.166 3.632v2.243h-1.018v-2.243z"></path>
<path fill="#afb1b8" style="fill: var(--color3, #afb1b8)" d="M31.244 18.041v0.308h-0.865v2.391h-0.363v-2.391h-0.87v-0.308h2.098z"></path>
<path fill="#afb1b8" style="fill: var(--color3, #afb1b8)" d="M33.956 20.74h-0.28c-0.028 0.002-0.056-0.007-0.078-0.026-0.021-0.016-0.037-0.037-0.047-0.062l-0.25-0.641h-1.2l-0.25 0.641c-0.007 0.027-0.020 0.052-0.038 0.073-0.022 0.018-0.050 0.027-0.078 0.026h-0.28l1.060-2.698h0.369l1.073 2.688zM32.2 19.738h1.001l-0.424-1.098c-0.031-0.083-0.057-0.168-0.078-0.254-0.015 0.051-0.028 0.1-0.040 0.143l-0.038 0.113-0.42 1.096z"></path>
<path fill="#afb1b8" style="fill: var(--color3, #afb1b8)" d="M35.784 20.475c0.066 0.003 0.133 0.003 0.199 0 0.057-0.006 0.114-0.017 0.17-0.032 0.052-0.013 0.103-0.029 0.153-0.049 0.047-0.019 0.093-0.043 0.142-0.066v-0.607h-0.424c-0.011 0.001-0.021-0.001-0.031-0.005s-0.019-0.009-0.026-0.017c-0.007-0.006-0.012-0.014-0.016-0.022s-0.005-0.018-0.005-0.027v-0.207h0.823v1.034c-0.067 0.048-0.138 0.091-0.212 0.128-0.076 0.038-0.154 0.068-0.235 0.092-0.087 0.026-0.175 0.044-0.265 0.056-0.103 0.012-0.206 0.017-0.31 0.017-0.183 0.002-0.364-0.033-0.534-0.1-0.159-0.064-0.303-0.16-0.424-0.282-0.118-0.123-0.211-0.268-0.274-0.427-0.067-0.179-0.1-0.369-0.098-0.56-0.002-0.192 0.030-0.383 0.095-0.564 0.061-0.16 0.154-0.305 0.274-0.427 0.121-0.121 0.265-0.217 0.424-0.28 0.182-0.069 0.374-0.103 0.568-0.1 0.099-0 0.197 0.008 0.295 0.023 0.086 0.014 0.171 0.037 0.252 0.068 0.074 0.028 0.145 0.064 0.212 0.107 0.065 0.042 0.127 0.089 0.184 0.141l-0.102 0.167c-0.008 0.015-0.020 0.028-0.034 0.037s-0.031 0.014-0.048 0.014c-0.023-0.001-0.046-0.008-0.066-0.021-0.032-0.017-0.066-0.038-0.104-0.064-0.045-0.028-0.093-0.053-0.142-0.073-0.063-0.026-0.128-0.046-0.195-0.060-0.089-0.016-0.179-0.024-0.269-0.023-0.14-0.002-0.279 0.024-0.409 0.075-0.118 0.048-0.224 0.121-0.312 0.214-0.088 0.097-0.155 0.211-0.197 0.335-0.095 0.292-0.095 0.607 0 0.9 0.046 0.127 0.119 0.243 0.212 0.34 0.087 0.093 0.193 0.165 0.31 0.214 0.135 0.047 0.278 0.065 0.42 0.053v0z"></path>
<path fill="#afb1b8" style="fill: var(--color3, #afb1b8)" d="M39.165 20.432h1.158v0.308h-1.512v-2.699h0.363l-0.008 2.391z"></path>
<path fill="#afb1b8" style="fill: var(--color3, #afb1b8)" d="M41.527 20.74h-0.363v-2.699h0.363v2.699z"></path>
<path fill="#afb1b8" style="fill: var(--color3, #afb1b8)" d="M42.876 18.054c0.022 0.012 0.040 0.029 0.055 0.049l1.55 2.034c-0.002-0.032-0.002-0.064 0-0.096 0-0.030 0-0.060 0-0.088v-1.923h0.316v2.709h-0.182c-0.027 0.002-0.054-0.003-0.078-0.015-0.022-0.013-0.041-0.031-0.057-0.051l-1.548-2.032c0 0.032 0 0.062 0 0.092s0 0.058 0 0.083v1.923h-0.303v-2.699h0.189c0.020 0 0.041 0.004 0.059 0.013v0z"></path>
<path fill="#afb1b8" style="fill: var(--color3, #afb1b8)" d="M47.468 18.041v0.297h-1.285v0.891h1.041v0.286h-1.041v0.921h1.285v0.297h-1.659v-2.692h1.659z"></path>
<path fill="#afb1b8" style="fill: var(--color3, #afb1b8)" d="M9.465 1.376l16.103 4.607v16.142l-16.103-4.604v-16.144zM8.432 0v18.304l18.167 5.198v-18.302l-18.167-5.201z"></path>
<path fill="#afb1b8" style="fill: var(--color3, #afb1b8)" d="M18.169 32l-18.169-5.203v-18.303l18.169 5.201v18.305z"></path>
<path fill="#afb1b8" style="fill: var(--color3, #afb1b8)" d="M8.733 1.169l15.893 4.549-6.759 6.811-15.895-4.551 6.761-6.809zM8.432 0l-8.432 8.495 18.169 5.2 8.43-8.495-18.167-5.2z"></path>
<path fill="#afb1b8" style="fill: var(--color3, #afb1b8)" d="M19.191 30.97l7.408-7.465-7.408-2.122v9.587z"></path>
</symbol>
<symbol id="icon-telegram" viewBox="0 0 43 32">
<path fill="#757575" style="fill: var(--color5, #757575)" d="M38.667 0h-34.667c-2.206 0-4 1.794-4 4v24c0 2.206 1.794 4 4 4h34.667c2.206 0 4-1.794 4-4v-24c0-2.206-1.794-4-4-4zM38.667 2.667c0.181 0 0.353 0.038 0.511 0.103l-17.844 15.466-17.844-15.466c0.158-0.066 0.33-0.103 0.511-0.103h34.667zM38.667 29.333h-34.667c-0.736 0-1.333-0.598-1.333-1.333v-22.413l17.793 15.421c0.251 0.217 0.563 0.326 0.874 0.326s0.622-0.108 0.874-0.326l17.793-15.421v22.413c0 0.736-0.598 1.333-1.333 1.333z"></path>
</symbol>
<symbol id="icon-tviter" viewBox="0 0 32 32">
<path fill="#fff" style="fill: var(--color4, #fff)" d="M32 16c0 4.418-1.791 8.418-4.686 11.314s-6.895 4.686-11.314 4.686-8.418-1.791-11.314-4.686c-2.895-2.895-4.686-6.895-4.686-11.314s1.791-8.418 4.686-11.314 6.895-4.686 11.314-4.686c4.418 0 8.418 1.791 11.314 4.686s4.686 6.895 4.686 11.314z"></path>
<path fill="#afb1b8" style="fill: var(--color3, #afb1b8)" d="M23.273 11.49c-0.541 0.237-1.117 0.394-1.718 0.471 0.618-0.369 1.090-0.949 1.312-1.648-0.576 0.344-1.213 0.586-1.891 0.722-0.547-0.583-1.327-0.944-2.178-0.944-1.651 0-2.98 1.34-2.98 2.983 0 0.236 0.020 0.464 0.069 0.68-2.479-0.121-4.673-1.309-6.146-3.119-0.257 0.446-0.408 0.957-0.408 1.507 0 1.033 0.532 1.948 1.325 2.478-0.479-0.009-0.949-0.148-1.347-0.367 0 0.009 0 0.021 0 0.033 0 1.449 1.034 2.653 2.389 2.93-0.243 0.066-0.507 0.098-0.782 0.098-0.191 0-0.384-0.011-0.565-0.051 0.386 1.181 1.483 2.049 2.786 2.077-1.015 0.794-2.303 1.272-3.697 1.272-0.245 0-0.479-0.011-0.714-0.041 1.321 0.852 2.886 1.338 4.575 1.338 5.487 0 8.487-4.545 8.487-8.485 0-0.132-0.005-0.259-0.011-0.385 0.592-0.42 1.089-0.944 1.495-1.548z"></path>
</symbol>
<symbol id="icon-ya-go" viewBox="0 0 37 32">
<path fill="#afb1b8" style="fill: var(--color3, #afb1b8)" d="M4.97 0l6.053 4.497h16.884v12.545l6.053 4.497v-21.539h-28.989z"></path>
<path fill="#afb1b8" style="fill: var(--color3, #afb1b8)" d="M0 4.308v20.923h28.161v-8.317l-16.96-12.601-11.201-0.005zM22.796 22.17h-18.34v-14.072h1.296v13.119h17.044v0.953z"></path>
<path fill="#afb1b8" style="fill: var(--color3, #afb1b8)" d="M7.864 29.164l0.545-1.123h0.456l-0.794 1.497v0.872h-0.413v-0.872l-0.796-1.497h0.457l0.545 1.123zM10.204 29.859h-0.918l-0.192 0.552h-0.428l0.895-2.37h0.369l0.897 2.37h-0.43l-0.194-0.552zM9.402 29.527h0.687l-0.343-0.983-0.343 0.983zM11.827 29.771c0-0.11 0.030-0.21 0.090-0.301 0.060-0.092 0.177-0.201 0.353-0.327-0.092-0.116-0.157-0.215-0.194-0.296-0.036-0.081-0.054-0.16-0.054-0.236 0-0.186 0.056-0.332 0.169-0.439 0.113-0.108 0.265-0.163 0.456-0.163 0.173 0 0.314 0.051 0.423 0.153 0.111 0.101 0.166 0.226 0.166 0.376 0 0.099-0.025 0.19-0.075 0.273-0.050 0.082-0.132 0.165-0.246 0.247l-0.161 0.117 0.457 0.54c0.066-0.13 0.099-0.275 0.099-0.435h0.343c0 0.292-0.068 0.531-0.205 0.718l0.348 0.412h-0.459l-0.133-0.158c-0.169 0.127-0.371 0.19-0.605 0.19s-0.422-0.062-0.563-0.186c-0.14-0.125-0.21-0.287-0.21-0.487zM12.611 30.127c0.133 0 0.258-0.044 0.374-0.133l-0.518-0.61-0.050 0.036c-0.13 0.099-0.195 0.212-0.195 0.339 0 0.11 0.035 0.199 0.106 0.267s0.165 0.103 0.283 0.103zM12.393 28.601c0 0.091 0.056 0.206 0.168 0.343l0.181-0.124 0.050-0.041c0.067-0.060 0.101-0.136 0.101-0.229 0-0.062-0.023-0.114-0.070-0.158-0.047-0.045-0.106-0.067-0.177-0.067-0.077 0-0.138 0.026-0.184 0.078s-0.068 0.118-0.068 0.197zM16.698 29.639c-0.024 0.253-0.117 0.45-0.28 0.592-0.163 0.141-0.379 0.212-0.649 0.212-0.189 0-0.355-0.045-0.5-0.133-0.143-0.090-0.254-0.218-0.332-0.383s-0.119-0.356-0.122-0.575v-0.221c0-0.224 0.040-0.42 0.119-0.591s0.193-0.302 0.34-0.394c0.149-0.092 0.32-0.138 0.514-0.138 0.261 0 0.472 0.071 0.631 0.213s0.252 0.343 0.278 0.602h-0.41c-0.020-0.17-0.069-0.293-0.15-0.368-0.079-0.076-0.196-0.114-0.35-0.114-0.179 0-0.317 0.066-0.413 0.197-0.096 0.13-0.144 0.322-0.147 0.575v0.21c0 0.256 0.046 0.451 0.137 0.586 0.092 0.135 0.227 0.202 0.404 0.202 0.162 0 0.283-0.036 0.365-0.109s0.133-0.194 0.155-0.363h0.41zM18.959 29.287c0 0.232-0.040 0.436-0.12 0.612-0.080 0.175-0.195 0.309-0.345 0.404-0.149 0.093-0.32 0.14-0.514 0.14-0.192 0-0.363-0.047-0.514-0.14-0.15-0.094-0.266-0.228-0.348-0.402-0.081-0.174-0.123-0.374-0.124-0.601v-0.133c0-0.231 0.041-0.435 0.122-0.612 0.082-0.177 0.198-0.312 0.347-0.405 0.15-0.094 0.321-0.142 0.514-0.142s0.364 0.047 0.513 0.14c0.15 0.092 0.265 0.226 0.347 0.4 0.081 0.174 0.123 0.376 0.124 0.607v0.132zM18.547 29.164c0-0.263-0.050-0.464-0.15-0.604s-0.239-0.21-0.422-0.21c-0.178 0-0.317 0.070-0.418 0.21-0.1 0.139-0.151 0.336-0.153 0.591v0.137c0 0.26 0.050 0.462 0.151 0.604 0.102 0.142 0.243 0.213 0.423 0.213 0.182 0 0.322-0.069 0.42-0.208 0.099-0.139 0.148-0.342 0.148-0.609v-0.124z"></path>
</symbol>
</defs>
</svg>
