<svg aria-hidden="true" style="position:absolute;width:0;height:0" xmlns="http://www.w3.org/2000/svg" overflow="hidden"><defs>
<symbol id="icon-antenna" viewBox="0 0 32 32"><path fill="var(--color1, #212121)" d="M30.773 22.098l-8.443-8.505.937-4.615c.242.094.499.144.758.146h.006a2.159 2.159 0 10-2.008-1.435l-4.96.605L8.972.161a.534.534 0 00-.377-.16.532.532 0 00-.373.155L6.709 1.66a.534.534 0 000 .754l.814.826a14.943 14.943 0 002.519 17.663.513.513 0 00.146.098c-.034.18-.051.364-.052.547v6.187h-6.4a2.67 2.67 0 00-2.667 2.667v1.067c0 .295.239.533.533.533h24.533a.533.533 0 00.533-.533v-1.067a2.67 2.67 0 00-2.667-2.667h-6.4v-2.742a15.09 15.09 0 003.049.32 14.854 14.854 0 007.04-1.783l.818.823a.534.534 0 00.377.16.532.532 0 00.373-.155l1.512-1.504a.534.534 0 000-.754zM23.28 6.233a1.066 1.066 0 11.752 1.822h-.003a1.067 1.067 0 01-.747-1.823h-.002zm-1.256 3.505l-.598 2.946-1.175-1.182 1.774-1.763zm-.606-.902l-1.92 1.909-1.485-1.493 3.405-.415zM24.004 28.8a1.6 1.6 0 011.6 1.6v.533H2.137V30.4a1.6 1.6 0 011.6-1.6h20.267zm-7.467-2.133v1.067h-5.333v-1.067h5.333zM11.204 25.6v-4.053c0-1.294 1.196-2.347 2.667-2.347s2.667 1.053 2.667 2.347V25.6h-5.333zm6.4-1.696v-2.357c0-1.882-1.675-3.413-3.733-3.413a3.8 3.8 0 00-3.281 1.786A13.87 13.87 0 018.311 4.033l18.602 18.708a13.818 13.818 0 01-9.309 1.163zm11.289-.684L7.836 2.039l.755-.752 7.935 7.98c.004 0 .006.007.01.01l13.115 13.191-.757.752z"/><path fill="var(--color2, #2196f3)" d="M13.876 20.267h-.005a1.6 1.6 0 10-.004 3.2h.005a1.6 1.6 0 10.004-3.2zm.373 1.978a.533.533 0 11-.378-.911.534.534 0 01.374.911h.005z"/></symbol>
<symbol id="icon-astronaut" viewBox="0 0 32 32"><path fill="var(--color2, #2196f3)" d="M31.974 4.524a.534.534 0 00-.43-.363l-1.91-.278-.855-1.731c-.179-.365-.777-.365-.956 0l-.855 1.731-1.91.278a.535.535 0 00-.296.91l1.383 1.348-.326 1.903c-.034.2.048.402.212.522a.53.53 0 00.562.04l1.709-.899 1.709.899a.536.536 0 00.775-.563l-.326-1.903 1.383-1.348a.536.536 0 00.135-.547zm-2.463 1.327a.534.534 0 00-.153.472l.191 1.114-1-.526a.533.533 0 00-.498 0l-1.001.526.191-1.114a.534.534 0 00-.153-.472l-.81-.789 1.119-.163a.532.532 0 00.402-.292l.5-1.013.5 1.013a.535.535 0 00.402.292l1.119.163-.809.789zM26.134 20.522h-1.067v1.067h1.067v-1.067zM26.134 22.656h-1.067v1.067h1.067v-1.067zM27.2 21.589h-1.067v1.067H27.2v-1.067zM25.067 21.589H24v1.067h1.067v-1.067zM22.4 26.389h-1.067v1.067H22.4v-1.067zM22.4 28.522h-1.067v1.067H22.4v-1.067zM23.467 27.456H22.4v1.067h1.067v-1.067zM21.333 27.456h-1.067v1.067h1.067v-1.067zM16 24.256h-1.067v1.067H16v-1.067zM16 26.389h-1.067v1.067H16v-1.067zM17.067 25.322H16v1.067h1.067v-1.067zM14.933 25.322h-1.067v1.067h1.067v-1.067zM5.867 6.122H4.8v1.067h1.067V6.122zM5.867 8.255H4.8v1.067h1.067V8.255z"/><path fill="var(--color2, #2196f3)" d="M6.933 7.189H5.866v1.067h1.067V7.189zM4.8 7.189H3.733v1.067H4.8V7.189z"/><path fill="var(--color1, #212121)" d="M24.715 14.159a1.775 1.775 0 00-1.188-.705 1.778 1.778 0 00-1.34.352l-1.252.96-1.898 1.417-1.358-.541c2.421-1.086 4.114-3.508 4.114-6.32 0-3.823-3.123-6.933-6.961-6.933s-6.961 3.11-6.961 6.933a6.86 6.86 0 001.12 3.758l-2.764-.024h-.005c-.009 0-.015.004-.023.005a.515.515 0 00-.155.031l-.038.013c-.006.003-.013.003-.019.006l-3.233 1.596-.001.001-1.893.911a.397.397 0 00-.063.035 1.779 1.779 0 00-.598 2.295c.22.429.595.745 1.056.889a1.776 1.776 0 001.378-.128l1.388-.738 2.264-1.169 1.357-.008L2.2 22.211l-.002.001-1.339 1.333c-.316.315-.49.732-.49 1.178s.174.863.49 1.179c.325.323.752.485 1.179.485s.854-.162 1.18-.485l1.314-1.309 1.741-1.3.901.897-1.762 1.754-.002.001-1.339 1.333c-.316.315-.49.732-.49 1.178s.174.863.49 1.179c.325.323.753.485 1.18.485s.855-.162 1.18-.485l3.482-3.467.001-.002 1.01-1-.004-.004c.006-.006.015-.009.022-.015l5.166-5.658 3.471.494a.52.52 0 00.262-.033c.018-.006.033-.015.05-.023.019-.01.039-.015.058-.027l3.213-2.133c.012-.008.018-.021.029-.029.013-.01.029-.014.041-.026l1.271-1.191c.662-.62.753-1.635.212-2.362zM2.13 17.77a.714.714 0 01-.558.052.717.717 0 01-.213-1.26l1.314-.632.449 1.313-.992.527zm3.498-1.828l-1.548.8-.439-1.283 2.027-1.001-.04 1.484zm15.099-6.62a5.79 5.79 0 01-.599 2.559l-4.181-1.899a1.863 1.863 0 00-.788-1.388l1.464-4.86c2.378.756 4.105 2.974 4.105 5.588zm-11.789 0c0-3.235 2.644-5.867 5.894-5.867.253 0 .5.021.745.052l-1.432 4.754c-.019-.001-.037-.006-.057-.006-1.033 0-1.873.837-1.873 1.867s.84 1.867 1.873 1.867c.694 0 1.294-.383 1.618-.945l3.862 1.755a5.894 5.894 0 01-4.737 2.39c-3.25 0-5.894-2.632-5.894-5.867zm5.956.8c0 .441-.362.8-.806.8s-.806-.359-.806-.8c0-.441.362-.8.806-.8s.806.359.806.8zM2.465 25.146a.608.608 0 01-.854.001.592.592 0 010-.844l.962-.959.851.848-.959.955zm3.214 3.734a.608.608 0 01-.855.001.592.592 0 010-.844l.963-.959.852.848-.96.955zm3.481-3.469l-.002.001-1.765 1.76-.852-.848 1.763-1.755.002-.001c.04-.04.065-.088.09-.135.007-.014.02-.026.026-.04.017-.041.019-.085.026-.129.003-.025.014-.047.014-.073 0-.036-.013-.07-.02-.106-.006-.032-.006-.065-.019-.095a.55.55 0 00-.091-.138c-.01-.012-.014-.027-.025-.038h-.001l-.001-.002-1.607-1.6c-.017-.017-.039-.024-.058-.038a.507.507 0 00-.087-.058.515.515 0 00-.093-.033.507.507 0 00-.103-.02.5.5 0 00-.095.005.53.53 0 00-.104.02.477.477 0 00-.094.045c-.02.011-.042.015-.061.029L4.23 23.486l-.901-.897 2.399-2.386 4.361 4.289-.928.919zm6.819-7.017c-.015-.002-.03.004-.045.003a.556.556 0 00-.3.075.492.492 0 00-.083.061c-.013.011-.028.017-.04.029l-4.698 5.146-4.328-4.257 2.833-2.818a.534.534 0 00-.379-.911v-.001l-2.219.013.028-1.607 3.104.027a6.947 6.947 0 004.981 2.101c.437 0 .864-.045 1.279-.123.04.032.079.065.13.085l2.41.96.152.758.178.885-3.003-.427zm4.041.178l-.313-1.558 1.446-1.08.947 1.257-2.08 1.381zm3.754-2.831l-.838.785-.931-1.236.831-.637a.735.735 0 01.543-.143.718.718 0 01.48.284.713.713 0 01-.085.947z"/><path fill="var(--color1, #212121)" d="M13.602 18.544l-2.143-2.133a.534.534 0 00-.753 0l-2.142 2.133a.537.537 0 000 .756l2.142 2.133a.536.536 0 00.753 0l2.143-2.133a.535.535 0 000-.756zm-2.519 1.759l-1.387-1.381 1.387-1.381 1.387 1.381-1.387 1.381zM17.164 5.071l-.258 1.036c.071.018 1.738.452 1.738 2.149h1.067c0-2.017-1.666-2.965-2.547-3.185zM19.711 9.322h-1.067v1.067h1.067V9.322z"/></symbol>
<symbol id="icon-brand" viewBox="0 0 40 32"><path fill="var(--color3, #afb1b8)" d="M3.055 26.742c.156.194.24.438.236.688a1.092 1.092 0 01-.365.869 1.575 1.575 0 01-1.061.317H0v-4.361h1.827c.361-.024.718.078 1.012.29a.998.998 0 01.354.816c.011.241-.065.477-.212.667a.997.997 0 01-.556.341c.247.045.471.177.63.373zm-2.187-.658h.781a.736.736 0 00.496-.145.515.515 0 00.167-.426.526.526 0 00-.165-.426.75.75 0 00-.511-.147H.868v1.144zm1.354 1.672a.54.54 0 00.185-.443.56.56 0 00-.188-.448.803.803 0 00-.53-.158H.87v1.199h.83a.822.822 0 00.524-.151zM6.79 28.617l-1.016-1.704h-.382v1.704h-.874v-4.361h1.655c.417-.029.83.104 1.152.371a1.394 1.394 0 01.123 1.804 1.342 1.342 0 01-.789.443l1.082 1.743H6.79zm-1.398-2.299h.715c.497 0 .745-.22.745-.66a.641.641 0 00-.183-.49.771.771 0 00-.562-.177h-.724l.008 1.327zM11.568 27.739H9.826l-.308.878h-.917l1.6-4.312h.991l1.593 4.312h-.917l-.301-.878zm-.233-.66l-.637-1.841-.637 1.841h1.273zM17.55 28.617h-.868l-1.946-2.965v2.965h-.866v-4.361h.866l1.946 2.983v-2.983h.868v4.361zM22.502 27.573a1.877 1.877 0 01-.785.769 2.546 2.546 0 01-1.22.275h-1.545v-4.361h1.545c.422-.011.841.081 1.22.268.332.168.606.433.785.761a2.541 2.541 0 010 2.288zm-.993-.104a1.601 1.601 0 000-2.082 1.506 1.506 0 00-1.086-.371h-.603v2.823h.603a1.5 1.5 0 001.086-.371zM12.111 0s11.201 4.246 10.963 10.39v10.392S11.881 16.534 12.115 10.39L12.111 0zM33.054 18.349a15.301 15.301 0 017.117-2.633v-3.253a14.62 14.62 0 00-7.117 5.886z"/><path fill="var(--color3, #afb1b8)" d="M31.783 19.329a15.237 15.237 0 018.388-7.548V2.407S24.219 8.455 24.557 17.204v14.795s.711-.27 1.829-.778c0-.473 0-.95.051-1.43a15.387 15.387 0 015.347-10.464z"/><path fill="var(--color3, #afb1b8)" d="M30.266 24.825a15.35 15.35 0 01.558-3.029 14.323 14.323 0 00-3.377 8.937c.906-.437 1.96-.982 3.068-1.623a15.355 15.355 0 01-.248-4.284zM30.9 24.878a14.705 14.705 0 00.197 3.879c4.358-2.618 9.255-6.664 9.067-11.553v-.426a14.276 14.276 0 00-8.292 3.89 14.648 14.648 0 00-.972 4.21z"/></symbol>
<symbol id="icon-clock" viewBox="0 0 32 32"><path fill="var(--color1, #212121)" d="M31.297 15.301C31.295 6.849 24.442-.002 15.989 0S.686 6.855.688 15.308a15.304 15.304 0 0010.649 14.576.668.668 0 00.53-.065.637.637 0 00.283-.356l3.865-12.25a1.912 1.912 0 10-.84-3.635l-5.106-5.107a.637.637 0 00-.902.902l5.103 5.109a1.876 1.876 0 00.536 2.309l-3.683 11.673C3.845 25.783.119 17.71 2.8 10.432S13.554-.572 20.832 2.109c7.278 2.681 11.004 10.754 8.324 18.032a14.042 14.042 0 01-7.462 7.973l-.398-1.874a.638.638 0 00-1.048-.344l-3.837 3.426a.637.637 0 00.231 1.084l4.899 1.563a.638.638 0 00.819-.74l-.391-1.839a15.255 15.255 0 009.329-14.089zm-15.305-.637a.638.638 0 110 1.277.638.638 0 010-1.277zm2.101 14.864l2.184-1.948.603 2.84-2.787-.892z"/><path fill="var(--color2, #2196f3)" d="M15.354 3.185V4.46a.638.638 0 101.276 0V3.185a.638.638 0 00-1.276 0zM3.876 14.664a.638.638 0 000 1.276h1.275a.638.638 0 100-1.276H3.876zM28.108 15.939a.638.638 0 100-1.276h-1.275a.638.638 0 000 1.276h1.275z"/></symbol>
<symbol id="icon-compane-two" viewBox="0 0 35 32"><path fill="var(--color3, #afb1b8)" d="M5.491 31.394c.013 0 .026.003.038.007s.022.011.031.019l.178.162a1.464 1.464 0 01-.501.307 2.022 2.022 0 01-.71.11 1.974 1.974 0 01-.668-.103 1.476 1.476 0 01-.503-.291 1.304 1.304 0 01-.325-.449 1.44 1.44 0 01-.114-.576 1.344 1.344 0 01.122-.578c.078-.167.195-.32.345-.449.152-.127.334-.226.534-.293.219-.07.453-.105.688-.103a1.96 1.96 0 01.639.094c.176.063.338.151.479.26l-.149.173a.13.13 0 01-.038.031.104.104 0 01-.06.013.162.162 0 01-.065-.018l-.08-.046-.111-.059a1.272 1.272 0 00-.352-.103 1.67 1.67 0 00-.265-.018 1.52 1.52 0 00-.494.077 1.013 1.013 0 00-.639.563 1.098 1.098 0 00-.091.457c-.003.158.028.315.091.464a1 1 0 00.616.558c.145.05.301.075.458.074.091.001.182-.004.272-.015a1.122 1.122 0 00.588-.237.138.138 0 01.085-.029zM10.632 30.58c.003.195-.038.389-.12.573-.073.166-.187.318-.335.445s-.328.226-.526.292a2.278 2.278 0 01-1.353 0 1.566 1.566 0 01-.523-.293 1.312 1.312 0 01-.338-.449 1.43 1.43 0 010-1.147c.076-.167.191-.32.338-.451.149-.123.327-.218.523-.282.435-.14.918-.14 1.353 0 .198.066.377.166.525.293.146.128.261.279.336.444.082.184.123.38.12.576zm-.467 0a1.162 1.162 0 00-.085-.46.949.949 0 00-.238-.344 1.054 1.054 0 00-.376-.217 1.636 1.636 0 00-.984 0 1.07 1.07 0 00-.376.217.91.91 0 00-.24.344 1.29 1.29 0 000 .92c.05.127.132.245.24.344.104.094.233.168.376.215.317.098.667.098.984 0 .143-.048.272-.121.376-.215a.949.949 0 00.238-.344c.06-.148.088-.304.085-.46zM14.14 31.062l.047.103c.018-.037.033-.07.051-.103a.849.849 0 01.058-.101l1.137-1.71c.022-.029.042-.048.065-.053a.295.295 0 01.094-.009h.336v2.781h-.398v-2.045-.086a.769.769 0 010-.096l-1.144 1.734c-.014.026-.038.048-.067.063s-.063.023-.098.023h-.065c-.035 0-.069-.008-.098-.023s-.052-.037-.067-.064l-1.177-1.745V31.963h-.385v-2.776h.336a.33.33 0 01.094.009c.028.011.05.03.062.053l1.162 1.712a.624.624 0 01.058.099zM18.42 30.924v1.042h-.445v-2.777h.993c.187-.003.374.018.554.061.144.034.278.093.392.173a.731.731 0 01.223.272.803.803 0 01.076.355.764.764 0 01-.322.633 1.152 1.152 0 01-.394.184 1.93 1.93 0 01-.536.064l-.539-.007zm0-.298h.539a1.33 1.33 0 00.345-.042.757.757 0 00.249-.12.49.49 0 00.151-.184.507.507 0 00.053-.234c.005-.077-.01-.154-.045-.226s-.088-.137-.156-.19a.992.992 0 00-.599-.149h-.539v1.145zM24.403 31.97h-.352a.174.174 0 01-.098-.026.177.177 0 01-.058-.064l-.303-.672h-1.52l-.314.672a.16.16 0 01-.056.063.172.172 0 01-.1.028h-.352l1.335-2.782h.463l1.353 2.782zM22.2 30.937h1.255l-.53-1.132a1.73 1.73 0 01-.1-.261l-.051.145a1.056 1.056 0 01-.049.118l-.525 1.13zM26.326 29.201a.187.187 0 01.067.05l1.947 2.097v-.098-2.062h.398v2.781h-.223a.214.214 0 01-.091-.017.233.233 0 01-.071-.052l-1.945-2.095a.769.769 0 010 .096v2.068h-.398v-2.781h.236a.213.213 0 01.08.013zM32.019 30.863v1.105h-.445v-1.105l-1.231-1.675h.398a.168.168 0 01.096.024.239.239 0 01.06.063l.77 1.081a1.246 1.246 0 01.136.247l.058-.12a.969.969 0 01.076-.127l.759-1.088a.27.27 0 01.058-.059.157.157 0 01.096-.028h.403l-1.233 1.682zM13.92 24.521c.194.02.39.037.588.052 3.003-1.111 5.544-2.93 7.304-5.228s2.663-4.975 2.594-7.696l-3.31-2.737c.673 2.896.358 5.89-.909 8.647s-3.437 5.168-6.267 6.962z"/><path fill="var(--color3, #afb1b8)" d="M12.738 24.393l.089.015c3.024-1.789 5.329-4.286 6.618-7.17s1.502-6.021.612-9.006l-4.714-3.899c1.907 3.205 2.674 6.791 2.213 10.342s-2.132 6.921-4.817 9.718zM28.725 14.862c-.801 2.989-2.746 5.685-5.547 7.687a17.84 17.84 0 01-2.635 1.565c2.28-.554 4.376-1.534 6.126-2.865s3.107-2.975 3.967-4.808l-1.912-1.579z"/><path fill="var(--color3, #afb1b8)" d="M27.975 14.422l-2.722-2.251c-.052 2.567-.934 5.075-2.555 7.264s-3.921 3.979-6.662 5.185h.013c.611 0 1.221-.03 1.827-.09 2.561-.865 4.824-2.24 6.586-4.004s2.969-3.861 3.512-6.104zM13.132 2.689L9.885 0c-2.903.928-5.4 2.559-7.163 4.679S.01 9.311.001 11.885c.011 2.844 1.168 5.604 3.289 7.843s5.084 3.829 8.42 4.518c2.978-3.001 4.722-6.709 4.978-10.586s-.99-7.72-3.556-10.971zM35.478 14.008c-.012-3.374-1.638-6.608-4.523-8.994S24.16 1.283 20.08 1.274a18.06 18.06 0 00-5.513.849L34.45 18.566a10.7 10.7 0 001.028-4.558z"/></symbol>
<symbol id="icon-diagram" viewBox="0 0 32 32"><path fill="var(--color2, #2196f3)" d="M14.926 14.965h1.066v4.798h-1.066v-4.797zM19.19 17.097h1.066v2.665H19.19v-2.665zM10.661 18.696h1.066v1.066h-1.066v-1.066zM7.463 18.163h1.066v1.599H7.463v-1.599z"/><path fill="var(--color1, #212121)" d="M1.599 28.291h25.587a1.6 1.6 0 001.599-1.599V24.56a1.6 1.6 0 00-1.599-1.599h-.533V9.668L29.681 6.8a1.608 1.608 0 10-.746-.763L26.654 8.2V6.97a1.6 1.6 0 00-1.599-1.599H3.733A1.6 1.6 0 002.134 6.97v15.992h-.533a1.6 1.6 0 00-1.599 1.599v2.132a1.6 1.6 0 001.599 1.599zM30.384 4.837a.533.533 0 110 1.067.533.533 0 010-1.067zM3.198 6.969c0-.294.239-.533.533-.533h21.322c.294 0 .533.239.533.533v2.239l-1.066 1.013V8.035a.533.533 0 00-.533-.533H4.797a.533.533 0 00-.533.533v13.326c0 .294.239.533.533.533h19.19a.533.533 0 00.533-.533v-9.674l1.066-1.01v12.284H3.198V6.969zm4.798 6.93a1.598 1.598 0 101.107 2.749l1.853.93a.532.532 0 00.636-.123l3.939-4.431 3.872 2.901a.533.533 0 00.686-.039l3.365-3.188v8.131H5.33V8.569h18.124v2.66l-3.771 3.572-3.904-2.927a.533.533 0 00-.718.072l-3.993 4.493-1.493-.746c.011-.064.018-.129.02-.193a1.6 1.6 0 00-1.599-1.599zm.533 1.599a.533.533 0 11-1.067 0 .533.533 0 011.067 0zm3.198 8.528h5.331v.533a.533.533 0 01-.533.533h-4.264a.533.533 0 01-.533-.533v-.533zm-10.661.534c0-.294.239-.533.533-.533h9.062v.533a1.6 1.6 0 001.599 1.599h4.264a1.6 1.6 0 001.599-1.599v-.533h9.062c.294 0 .533.239.533.533v2.132a.533.533 0 01-.533.533H1.598a.533.533 0 01-.533-.533V24.56z"/></symbol>
<symbol id="icon-facebook" viewBox="0 0 32 32"><path fill="var(--color4, #fff)" d="M32 16c0 4.418-1.791 8.418-4.686 11.314S20.419 32 16 32s-8.418-1.791-11.314-4.686C1.791 24.419 0 20.419 0 16S1.791 7.582 4.686 4.686 11.581 0 16 0c4.418 0 8.418 1.791 11.314 4.686S32 11.581 32 16z"/><path fill="var(--color3, #afb1b8)" d="M18.422 11.142h1.328V8.829a17.317 17.317 0 00-1.935-.102c-1.915 0-3.226 1.204-3.226 3.418v2.037h-2.113v2.585h2.113v6.505h2.59v-6.505h2.027l.322-2.585h-2.35v-1.781c.001-.747.202-1.259 1.243-1.259z"/></symbol>
<symbol id="icon-instagram" viewBox="0 0 32 32"><path fill="var(--color4, #fff)" d="M32 16c0 4.418-1.791 8.418-4.686 11.314S20.419 32 16 32s-8.418-1.791-11.314-4.686C1.791 24.419 0 20.419 0 16S1.791 7.582 4.686 4.686 11.581 0 16 0c4.418 0 8.418 1.791 11.314 4.686S32 11.581 32 16z"/><path fill="var(--color3, #afb1b8)" d="M23.258 13.004c-.034-.773-.159-1.304-.338-1.765a3.557 3.557 0 00-.841-1.29 3.589 3.589 0 00-1.287-.838c-.463-.179-.992-.304-1.764-.338-.779-.037-1.026-.046-3.001-.046s-2.222.009-2.998.043c-.773.034-1.304.159-1.764.338a3.557 3.557 0 00-1.29.841 3.589 3.589 0 00-.838 1.287c-.179.463-.304.992-.338 1.764-.037.779-.046 1.026-.046 3.001s.009 2.222.043 2.998c.034.773.159 1.304.338 1.765.185.489.472.926.841 1.29.364.369.804.656 1.287.838.463.179.992.304 1.765.338.776.034 1.023.043 2.998.043s2.222-.008 2.998-.043c.773-.034 1.304-.159 1.764-.338a3.72 3.72 0 002.128-2.128c.179-.463.304-.992.338-1.765.034-.776.043-1.023.043-2.998s-.003-2.222-.037-2.998zm-1.309 5.938c-.031.71-.151 1.094-.25 1.35a2.409 2.409 0 01-1.381 1.381c-.256.099-.642.219-1.35.25-.767.034-.997.043-2.938.043s-2.174-.008-2.938-.043c-.71-.031-1.094-.15-1.35-.25a2.228 2.228 0 01-.835-.543 2.264 2.264 0 01-.543-.835c-.1-.256-.219-.642-.25-1.35-.034-.767-.043-.997-.043-2.938s.008-2.174.043-2.938c.031-.71.15-1.094.25-1.35.117-.315.301-.602.546-.835.236-.242.52-.426.835-.543.256-.099.642-.219 1.35-.25.767-.034.997-.043 2.938-.043 1.944 0 2.174.008 2.938.043.71.031 1.094.151 1.35.25.315.116.602.301.835.543.242.236.426.52.543.835.099.256.219.642.25 1.35.034.767.043.997.043 2.938s-.009 2.168-.043 2.935z"/><path fill="var(--color3, #afb1b8)" d="M16.027 12.265a3.737 3.737 0 000 7.472 3.737 3.737 0 000-7.472zm0 6.16a2.424 2.424 0 110-4.849 2.424 2.424 0 010 4.849zM20.784 12.117a.872.872 0 11-1.744 0 .872.872 0 011.744 0z"/></symbol>
<symbol id="icon-linkedin" viewBox="0 0 32 32"><path fill="var(--color3, #afb1b8)" d="M31.992 32v-.001H32V20.263c0-5.741-1.236-10.164-7.948-10.164-3.227 0-5.392 1.771-6.276 3.449h-.093v-2.913h-6.364v21.364h6.627V21.42c0-2.785.528-5.479 3.977-5.479 3.399 0 3.449 3.179 3.449 5.657v10.401h6.62zM.528 10.636h6.635V32H.528V10.636zM3.843 0C1.722 0 0 1.721 0 3.843s1.721 3.879 3.843 3.879c2.121 0 3.843-1.757 3.843-3.879A3.846 3.846 0 003.843 0z"/></symbol>
<symbol id="icon-logo" viewBox="0 0 25 32"><path fill="var(--color3, #afb1b8)" d="M10.447 1.806h.084c.156 0 .324.016.49.03.734.052 1.463.162 2.179.329V.403a12.97 12.97 0 00-2.25-.358 18.11 18.11 0 00-.909-.044h-.263a18.35 18.35 0 00-4.515.582 18.3 18.3 0 00-4.79 1.948v17.475a19.484 19.484 0 014.566-1.779 19.948 19.948 0 013.833-.588h.051c.216-.011.433-.017.655-.019v-1.79a21.155 21.155 0 00-4.982.662 23.81 23.81 0 00-1.731.513l-.623.211V3.591l.266-.128a17.409 17.409 0 016.471-1.651.523.523 0 01.056 0c.248-.013.497-.019.741-.019h.28c.129.003.258.006.388.014z"/><path fill="var(--color3, #afb1b8)" d="M14.837 3.651a15.823 15.823 0 01-2.606-.211c-.277-.047-.55-.103-.814-.164v17.275a13.82 13.82 0 003.425.404 18.396 18.396 0 004.515-.581 18.362 18.362 0 004.792-1.948V1.263a19.58 19.58 0 01-4.564 1.781 19.388 19.388 0 01-4.747.609zm6.908.299l.623-.21v13.63l-.266.128a17.055 17.055 0 01-3.184 1.144c-1.331.344-2.7.522-4.074.527-.411 0-.819-.017-1.214-.052l-.427-.038V5.062l.497.033c.361.023.735.034 1.141.034a21.098 21.098 0 005.173-.663 26.802 26.802 0 001.731-.518zM1.684 25.977a.912.912 0 00-.693-.28 1.034 1.034 0 00-.4.075.91.91 0 00-.512.518 1.023 1.023 0 00-.072.387v2.335c-.006.165.026.328.092.479.055.12.135.226.233.313a.815.815 0 00.321.166c.114.032.231.048.349.049a.972.972 0 00.892-.61.951.951 0 00.075-.372v-.261h-.61v.208a.528.528 0 01-.036.208.359.359 0 01-.089.131.365.365 0 01-.128.067.425.425 0 01-.128.022.314.314 0 01-.286-.125.548.548 0 01-.081-.313v-2.177a.738.738 0 01.075-.349.31.31 0 01.299-.141.33.33 0 01.272.131c.068.09.104.2.101.313v.202h.604v-.238a1.093 1.093 0 00-.279-.737zM5.31 25.95a1.051 1.051 0 00-1.38 0 .961.961 0 00-.237.327 1.099 1.099 0 00-.089.452v2.239a1.08 1.08 0 00.089.459c.055.12.136.227.237.313a.94.94 0 00.322.197 1.028 1.028 0 00.728 0c.121-.044.233-.111.33-.197a.948.948 0 00.23-.313 1.08 1.08 0 00.089-.459v-2.239a1.08 1.08 0 00-.089-.452 1.015 1.015 0 00-.23-.327zm-.285 3.019a.405.405 0 01-.121.324.445.445 0 01-.574 0 .397.397 0 01-.121-.324V26.73a.405.405 0 01.121-.324.445.445 0 01.574 0 .397.397 0 01.121.324v2.239zM10.072 29.969V25.73h-.587l-.771 2.244h-.011l-.777-2.244h-.581v4.239h.606V27.39h.011l.593 1.823h.302l.598-1.823h.011v2.579h.606zM13.513 26.027a.844.844 0 00-.342-.232 1.363 1.363 0 00-.439-.066h-.9v4.239h.604v-1.656h.311c.188.009.376-.031.545-.116a.882.882 0 00.332-.324 1.02 1.02 0 00.139-.369c.024-.16.035-.321.033-.482a2.421 2.421 0 00-.059-.606.898.898 0 00-.223-.39zm-.312 1.292a.547.547 0 01-.056.221.346.346 0 01-.156.149.619.619 0 01-.285.053h-.276v-1.441h.311a.585.585 0 01.273.053.349.349 0 01.142.157.62.62 0 01.053.236v.282c0 .099.006.2 0 .291h-.006zM16.374 25.73h-.495l-.934 4.239h.604l.177-.911h.824l.177.911h.604l-.957-4.239zm-.557 2.751l.297-1.537h.011l.296 1.537h-.604zM20.277 28.284h-.011l-.912-2.554h-.581v4.239h.604V27.42h.012l.923 2.549h.568V25.73h-.604v2.554zM23.968 25.73l-.486 1.685h-.012l-.486-1.685h-.64l.83 2.447v1.792h.604v-1.792l.83-2.447h-.64zM0 31.166h.291v.817h.198v-.817h.29v-.167H.001v.167zM2.447 30.998l-.381.984h.21l.081-.224h.392l.084.224h.215l-.391-.984h-.21zm-.031.595l.134-.365.134.365h-.268zM4.866 31.62h.227v.127a.382.382 0 01-.234.083.244.244 0 01-.209-.093.411.411 0 01-.073-.257c0-.219.095-.329.283-.329a.206.206 0 01.222.157l.195-.038c-.042-.192-.181-.289-.417-.289a.495.495 0 00-.344.127.494.494 0 00-.141.379.532.532 0 00.126.369.477.477 0 00.374.144.59.59 0 00.417-.157v-.388h-.427v.166zM7.337 30.998h-.199v.984h.69v-.167h-.49v-.817zM9.426 30.998h-.199v.984h.199v-.984zM11.469 31.656l-.403-.657h-.193v.984h.185v-.643l.395.643h.198v-.984h-.182v.657zM13.315 31.549h.49v-.167h-.49v-.216h.528v-.167h-.727v.984h.747v-.167h-.548v-.266zM17.792 31.387h-.388v-.388h-.198v.984h.198v-.43h.388v.43h.198v-.984h-.198v.388zM19.649 31.549h.492v-.167h-.492v-.216h.529v-.167h-.727v.984h.746v-.167h-.548v-.266zM22.168 31.549c.171-.027.258-.117.258-.274a.236.236 0 00-.096-.219.553.553 0 00-.288-.058h-.417v.984h.198v-.412h.039a.261.261 0 01.123.022.21.21 0 01.07.072l.215.313h.237l-.12-.192a.685.685 0 00-.218-.236zm-.199-.136h-.146v-.247h.156a.526.526 0 01.201.023c.014.013.026.029.033.046a.133.133 0 01-.005.111.128.128 0 01-.037.043.547.547 0 01-.201.023zM24.067 31.549h.49v-.167h-.49v-.216h.529v-.167h-.729v.984h.747v-.167h-.548v-.266z"/></symbol>
<symbol id="icon-smartphone" viewBox="0 0 20 32"><path fill="var(--color5, #757575)" d="M17 0H3C1.346 0 0 1.346 0 3v26c0 1.654 1.346 3 3 3h14c1.654 0 3-1.346 3-3V3c0-1.654-1.346-3-3-3zM3 2h14a1 1 0 011 1v21H2V3a1 1 0 011-1zm14 28H3a1 1 0 01-1-1v-3h16v3a1 1 0 01-1 1z"/><path fill="var(--color5, #757575)" d="M4.707 27.478c.391.365.391.956 0 1.321s-1.024.365-1.414 0c-.391-.365-.391-.956 0-1.321s1.024-.365 1.414 0z"/></symbol>
<symbol id="icon-tag" viewBox="0 0 59 32"><path fill="var(--color3, #afb1b8)" d="M29.606 15.038a2.4 2.4 0 01-.377-1.449v-2.1c0-.644.125-1.133.375-1.468s.68-.501 1.289-.5c.573 0 .979.142 1.219.427.262.364.39.808.361 1.256v.494h-1.024v-.5a2.856 2.856 0 00-.03-.489.498.498 0 00-.146-.291.53.53 0 00-.371-.113.556.556 0 00-.39.12.583.583 0 00-.17.32 2.817 2.817 0 00-.04.519v2.549c-.016.246.029.492.131.716a.488.488 0 00.468.213.505.505 0 00.363-.115.541.541 0 00.153-.31c.024-.169.035-.34.032-.511v-.517h1.024v.472c.029.467-.096.931-.354 1.321-.235.312-.636.468-1.226.468s-1.035-.167-1.287-.513zM33.871 15.059c-.259-.327-.388-.803-.388-1.434v-2.209c0-.624.129-1.096.388-1.417s.691-.48 1.298-.479c.602 0 1.033.16 1.292.479.259.32.39.793.39 1.417v2.209c0 .624-.132 1.103-.395 1.432s-.691.494-1.287.494-1.037-.167-1.298-.491zm1.775-.53c.093-.205.135-.429.123-.654V11.17c.012-.22-.03-.44-.121-.641-.052-.077-.124-.138-.209-.176s-.178-.051-.27-.038a.495.495 0 00-.482.214c-.093.2-.136.42-.123.641v2.718c-.013.225.029.449.123.654a.637.637 0 00.742.162.634.634 0 00.216-.162v-.013zM38.083 9.585h1.103l.829 4.076.848-4.076h1.073l.108 5.884h-.793l-.085-4.089-.819 4.089h-.636l-.848-4.104-.078 4.104h-.802l.1-5.884zM43.281 9.585h1.718c.99 0 1.485.557 1.485 1.671 0 1.067-.521 1.6-1.563 1.598h-.585v2.615h-1.06l.006-5.884zm1.468 2.515a.732.732 0 00.583-.185c.122-.199.175-.432.153-.664a2.127 2.127 0 00-.051-.534.455.455 0 00-.212-.279.954.954 0 00-.473-.094h-.411v1.758h.411zM48.013 9.585h1.139l1.169 5.884h-.988l-.231-1.357h-1.016l-.238 1.357h-1.003l1.169-5.884zm.973 3.846l-.397-2.47-.397 2.47h.793zM51.264 9.585h.742l1.421 3.356V9.585h.88v5.884h-.706l-1.429-3.504v3.504h-.91l.002-5.884zM56.369 13.225l-1.181-3.632h.995l.721 2.333.677-2.333h.973l-1.166 3.632v2.243H56.37v-2.243zM31.244 18.041v.308h-.865v2.391h-.363v-2.391h-.87v-.308h2.098zM33.956 20.74h-.28a.107.107 0 01-.078-.026.145.145 0 01-.047-.062l-.25-.641h-1.2l-.25.641a.183.183 0 01-.038.073.117.117 0 01-.078.026h-.28l1.06-2.698h.369l1.073 2.688zM32.2 19.738h1.001l-.424-1.098a2.256 2.256 0 01-.078-.254l-.04.143-.038.113-.42 1.096zM35.784 20.475c.066.003.133.003.199 0 .057-.006.114-.017.17-.032.052-.013.103-.029.153-.049.047-.019.093-.043.142-.066v-.607h-.424c-.011.001-.021-.001-.031-.005s-.019-.009-.026-.017a.062.062 0 01-.021-.049v-.207h.823v1.034a1.431 1.431 0 01-.447.22 1.71 1.71 0 01-.265.056 2.672 2.672 0 01-.31.017 1.414 1.414 0 01-.534-.1 1.26 1.26 0 01-.424-.282 1.318 1.318 0 01-.274-.427 1.551 1.551 0 01-.098-.56c-.002-.192.03-.383.095-.564a1.236 1.236 0 01.698-.707c.182-.069.374-.103.568-.1.099 0 .197.008.295.023a1.285 1.285 0 01.464.175c.065.042.127.089.184.141l-.102.167c-.008.015-.02.028-.034.037s-.031.014-.048.014a.132.132 0 01-.066-.021 1.096 1.096 0 01-.104-.064 1.1 1.1 0 00-.606-.156 1.079 1.079 0 00-.409.075.892.892 0 00-.509.549 1.457 1.457 0 000 .9.97.97 0 00.522.554c.135.047.278.065.42.053zM39.165 20.432h1.158v.308h-1.512v-2.699h.363l-.008 2.391zM41.527 20.74h-.363v-2.699h.363v2.699zM42.876 18.054c.022.012.04.029.055.049l1.55 2.034a.769.769 0 010-.096V18.03h.316v2.709h-.182a.15.15 0 01-.078-.015.213.213 0 01-.057-.051l-1.548-2.032v2.098h-.303V18.04h.189c.02 0 .041.004.059.013zM47.468 18.041v.297h-1.285v.891h1.041v.286h-1.041v.921h1.285v.297h-1.659v-2.692h1.659zM9.465 1.376l16.103 4.607v16.142L9.465 17.521V1.377zM8.432 0v18.304l18.167 5.198V5.2L8.432-.001z"/><path fill="var(--color3, #afb1b8)" d="M18.169 32L0 26.797V8.494l18.169 5.201V32z"/><path fill="var(--color3, #afb1b8)" d="M8.733 1.169l15.893 4.549-6.759 6.811L1.972 7.978l6.761-6.809zM8.432 0L0 8.495l18.169 5.2 8.43-8.495L8.432 0zM19.191 30.97l7.408-7.465-7.408-2.122v9.587z"/></symbol>
<symbol id="icon-mail" viewBox="0 0 43 32"><path  d="M38.667 0H4C1.794 0 0 1.794 0 4v24c0 2.206 1.794 4 4 4h34.667c2.206 0 4-1.794 4-4V4c0-2.206-1.794-4-4-4zm0 2.667c.181 0 .353.038.511.103L21.334 18.236 3.49 2.77a1.32 1.32 0 01.511-.103h34.667zm0 26.666H4A1.334 1.334 0 012.667 28V5.587L20.46 21.008a1.335 1.335 0 001.748 0L40.001 5.587V28c0 .736-.598 1.333-1.333 1.333z"/></symbol>
<symbol id="icon-tviter" viewBox="0 0 32 32"><path fill="var(--color4, #fff)" d="M32 16c0 4.418-1.791 8.418-4.686 11.314S20.419 32 16 32s-8.418-1.791-11.314-4.686C1.791 24.419 0 20.419 0 16S1.791 7.582 4.686 4.686 11.581 0 16 0c4.418 0 8.418 1.791 11.314 4.686S32 11.581 32 16z"/><path fill="var(--color3, #afb1b8)" d="M23.273 11.49a6.248 6.248 0 01-1.718.471 2.967 2.967 0 001.312-1.648 5.963 5.963 0 01-1.891.722 2.981 2.981 0 00-5.158 2.039c0 .236.02.464.069.68a8.439 8.439 0 01-6.146-3.119 2.985 2.985 0 00.917 3.985 2.943 2.943 0 01-1.347-.367v.033a2.996 2.996 0 002.389 2.93 2.992 2.992 0 01-.782.098 2.64 2.64 0 01-.565-.051 3.01 3.01 0 002.786 2.077 5.991 5.991 0 01-3.697 1.272 5.59 5.59 0 01-.714-.041 8.393 8.393 0 004.575 1.338c5.487 0 8.487-4.545 8.487-8.485 0-.132-.005-.259-.011-.385a5.95 5.95 0 001.495-1.548z"/></symbol>
<symbol id="icon-ya-go" viewBox="0 0 37 32"><path fill="var(--color3, #afb1b8)" d="M4.97 0l6.053 4.497h16.884v12.545l6.053 4.497V0H4.971z"/><path fill="var(--color3, #afb1b8)" d="M0 4.308v20.923h28.161v-8.317L11.201 4.313 0 4.308zM22.796 22.17H4.456V8.098h1.296v13.119h17.044v.953zM7.864 29.164l.545-1.123h.456l-.794 1.497v.872h-.413v-.872l-.796-1.497h.457l.545 1.123zm2.34.695h-.918l-.192.552h-.428l.895-2.37h.369l.897 2.37h-.43l-.194-.552zm-.802-.332h.687l-.343-.983-.343.983zm2.425.244c0-.11.03-.21.09-.301.06-.092.177-.201.353-.327a1.538 1.538 0 01-.194-.296.58.58 0 01-.054-.236c0-.186.056-.332.169-.439a.633.633 0 01.456-.163c.173 0 .314.051.423.153a.487.487 0 01.166.376.52.52 0 01-.075.273.894.894 0 01-.246.247l-.161.117.457.54a.947.947 0 00.099-.435h.343c0 .292-.068.531-.205.718l.348.412h-.459l-.133-.158c-.169.127-.371.19-.605.19s-.422-.062-.563-.186a.622.622 0 01-.21-.487zm.784.356a.603.603 0 00.374-.133l-.518-.61-.05.036c-.13.099-.195.212-.195.339 0 .11.035.199.106.267s.165.103.283.103zm-.218-1.526c0 .091.056.206.168.343l.181-.124.05-.041a.294.294 0 00.101-.229.207.207 0 00-.07-.158.245.245 0 00-.177-.067c-.077 0-.138.026-.184.078s-.068.118-.068.197zm4.305 1.038c-.024.253-.117.45-.28.592-.163.141-.379.212-.649.212a.943.943 0 01-.5-.133c-.143-.09-.254-.218-.332-.383s-.119-.356-.122-.575v-.221c0-.224.04-.42.119-.591s.193-.302.34-.394a.957.957 0 01.514-.138c.261 0 .472.071.631.213s.252.343.278.602h-.41c-.02-.17-.069-.293-.15-.368-.079-.076-.196-.114-.35-.114a.482.482 0 00-.413.197c-.096.13-.144.322-.147.575v.21c0 .256.046.451.137.586a.458.458 0 00.404.202c.162 0 .283-.036.365-.109s.133-.194.155-.363h.41zm2.261-.352c0 .232-.04.436-.12.612a.914.914 0 01-.345.404.95.95 0 01-.514.14.96.96 0 01-.514-.14.927.927 0 01-.348-.402 1.424 1.424 0 01-.124-.601v-.133c0-.231.041-.435.122-.612a.918.918 0 01.347-.405c.15-.094.321-.142.514-.142s.364.047.513.14c.15.092.265.226.347.4.081.174.123.376.124.607v.132zm-.412-.123c0-.263-.05-.464-.15-.604s-.239-.21-.422-.21a.487.487 0 00-.418.21c-.1.139-.151.336-.153.591v.137c0 .26.05.462.151.604a.492.492 0 00.423.213.483.483 0 00.42-.208c.099-.139.148-.342.148-.609v-.124z"/></symbol></defs></svg>